<svg width="180" height="180" viewBox="0 0 180 180" fill="none" xmlns="http://www.w3.org/2000/svg">
<g clip-path="url(#clip0_207_237)">
<path d="M150.29 38.4182C153.199 38.271 155.28 39.7513 154.968 42.9466C154.72 45.4964 151.824 45.4737 151.605 46.6794C151.653 46.7398 151.7 46.8005 151.747 46.8609C155.745 47.0207 160.307 47.129 164.243 47.2528C165.53 47.2932 167.66 47.2688 168.07 47.4676C168.22 47.6592 168.303 47.742 168.291 48.0023C168.265 48.5762 163.862 52.2388 163.136 52.9316C163.964 53.831 164.97 54.6377 165.835 55.5038C166.397 56.0657 167.949 57.2199 167.737 58.0725C167.524 58.227 167.26 58.3106 166.996 58.3043C161.128 58.1663 155.17 58.1588 149.311 57.8615L148.086 63.522C147.847 64.6344 147.513 65.9095 147.447 67.0482C147.443 67.6606 147.654 68.2883 147.828 68.8633C149.644 74.875 151.224 80.9541 153.007 86.9767L154.675 92.5558C154.969 93.5539 155.34 94.6529 155.535 95.6682C156.134 98.7825 152.494 99.4016 150.344 99.7857L145.117 138.783C148.034 138.707 149.048 140.864 149.874 143.294C150.318 141.396 150.512 140.385 151.398 138.544C153.264 134.669 158.709 132.194 161.971 135.95C163.813 138.071 163.321 141.964 163.051 144.654C167.356 141.109 171.879 143.341 171.18 148.942C170.998 150.391 170.565 151.467 170.058 152.812C170.694 152.645 171.385 152.559 172.044 152.596C173.101 152.655 173.959 153.089 174.655 153.89C175.273 154.603 175.603 155.52 175.532 156.466C175.418 157.978 174.465 159.36 173.33 160.306C168.866 164.027 156.357 163.382 150.784 162.844C147.865 162.562 141.789 161.86 139.94 159.506C138.918 158.206 138.844 156.619 139.042 155.053C133.492 155.378 127.657 155.903 122.16 156.144C124.356 157.262 126.65 158.139 128.893 159.155C131.4 160.29 152.691 170.021 153.187 170.776C153.26 170.887 153.197 171.045 153.179 171.169C152.303 171.63 136.827 172.548 134.891 172.691L122.741 173.506C120.672 173.643 118.603 173.837 116.532 173.917C116.046 173.955 115.628 173.765 115.197 173.555C112.75 172.363 110.3 171.179 107.831 170.032L88.382 161.07C87.5438 160.687 84.1323 158.836 83.4234 158.827C81.8647 158.807 79.3922 159.041 77.7832 159.157L66.7943 159.968L59.3997 160.486C58.9687 160.515 55.789 160.709 55.6132 160.794C51.2081 162.917 46.7148 163.907 41.827 163.892C41.3027 163.891 38.741 163.799 38.3483 163.956C33.4041 165.872 28.2636 166.043 22.9518 165.895C17.9598 165.756 11.6899 165.431 6.8784 163.849C5.88891 163.523 5.96279 162.138 5.58412 161.428C5.09327 160.484 4.0797 159.453 3.87172 158.392C3.34444 155.703 5.31748 155.126 7.30949 156.524C6.32968 152.108 5.65749 146.998 8.08103 142.8C8.69591 141.82 9.63008 140.956 10.7782 140.725C13.5612 140.164 14.8691 142.955 15.2828 145.249C15.5725 144.239 15.8613 143.229 16.2727 142.261C18.0612 138.052 21.6317 133.493 26.7278 134.702C26.5831 129.058 26.0352 123.351 25.8278 117.705C25.7935 116.77 25.7328 115.82 25.6711 114.886C23.7121 114.205 21.2947 112.501 21.992 110.043C22.2358 109.184 22.8259 108.088 23.2452 107.283C25.5701 102.817 27.6947 98.2601 29.7909 93.6835L32.3733 88.2093C33.2392 86.3557 33.9453 84.7358 35.0807 83.0239C34.9937 82.5287 34.9387 82.0306 34.8877 81.5305C34.5535 78.2493 34.1707 74.9749 33.7548 71.7032C31.6182 71.0848 30.3654 69.6505 30.8173 67.3045C31.4737 63.8978 36.7035 63.3165 38.2261 66.3997C38.8087 67.5794 38.7083 68.4801 38.3383 69.6854C41.6521 69.1748 45.1695 68.1131 48.4849 67.4938C51.3371 66.9612 55.575 65.3538 51.5171 69.8922C50.8233 70.6682 50.0703 71.5547 49.4252 72.3745C50.4849 73.1536 53.1173 74.7413 53.9178 75.8724C54.1561 76.2092 53.7844 76.9102 53.1668 77.0247C51.4973 77.3339 49.7913 77.5842 48.1019 77.8517L37.5866 79.5195C37.7521 80.6399 37.8538 81.9249 38.0071 83.0863C39.6199 84.6075 40.6266 86.0006 41.978 87.7355L46.7978 94.0283C50.1053 98.3455 53.5022 102.791 56.4995 107.329C58.2703 110.01 55.0895 111.991 52.9907 113.026C53.2101 116.477 53.4066 121.493 53.8826 124.827C55.3592 124.546 57.0586 124.361 58.5677 124.16C58.4716 123.621 57.9019 119.8 58.2694 119.702C59.7358 119.308 64.2868 118.393 65.6102 118.674C65.8939 118.947 66.2975 122.56 66.3958 123.208C67.2053 123.092 67.9562 123.01 68.7672 122.929C68.331 119.329 68.0917 115.478 67.7822 111.85L66.182 92.9248C65.2302 93.1424 60.4783 94.8041 60.0422 94.6814C59.781 94.4564 59.8648 94.5935 59.7882 94.2514C59.9581 93.6379 65.377 87.1127 66.1761 86.1537C65.5223 86.3179 64.0451 86.7868 63.4163 86.6756C63.2899 86.6533 63.2932 86.578 63.225 86.4399C63.3295 85.826 64.4355 84.6399 64.864 84.1252C66.3336 82.3598 67.8223 80.6964 69.0503 78.7447C68.3631 78.9605 67.4494 79.5074 66.8804 78.9428C66.9279 78.0778 68.6989 75.5303 69.2225 74.676C70.2739 72.9608 71.3003 71.2188 72.3328 69.4921C73.3495 68.9596 74.5399 68.748 75.6588 68.575C75.5844 65.5013 75.3939 61.9177 75.1541 58.8559C75.0481 58.7835 74.9389 58.7009 74.8343 58.6306C73.3757 57.6566 72.8999 55.7036 74.0461 54.3127C75.4454 52.615 78.2895 52.9792 79.003 55.1097C79.1617 55.5839 79.1774 55.9534 79.2078 56.4373C80.2892 56.2918 87.2842 55.5836 87.8423 55.9242C88.0434 56.2013 88.0257 56.197 88.0418 56.5236C87.782 57.3016 86.1119 58.3229 85.4002 58.9904L85.3341 59.0535C86.0996 59.4499 89.2138 60.7392 88.3445 61.7965C88.0281 62.1817 86.8089 62.2495 86.2891 62.2974C83.4982 62.5543 80.704 62.7806 77.9063 62.9651C77.9687 64.7121 78.0831 66.45 78.1399 68.1997C79.7879 68.0196 82.1904 68.1089 83.8565 68.1394C88.3607 68.2219 92.8187 68.6872 97.3015 69.1024C97.0093 66.5625 96.9696 63.6117 96.922 61.0314C95.4169 60.1373 94.4507 58.5996 95.3538 56.9511C97.385 53.2434 102.867 56.1598 100.34 60.2731L105.765 59.8682C106.66 59.8035 108.942 59.5072 109.685 59.8981C110.066 60.327 109.97 60.6817 109.585 61.0451C108.837 61.7505 108.1 62.458 107.371 63.1836C107.997 63.5262 110.106 64.544 110.271 65.1589C110.22 65.7481 109.923 65.9478 109.354 65.9844C106.077 66.1955 102.809 66.4569 99.536 66.7263C99.5683 67.6241 99.6242 68.4924 99.6845 69.3878C100.35 69.493 101.038 69.5627 101.708 69.639C102.446 71.6134 104.262 73.8233 105.482 75.5651C105.84 76.0753 107.66 77.4827 106.981 78.1718C106.731 78.4253 105.767 78.2312 105.386 78.1818C106.073 79.51 106.897 80.6883 107.789 81.878C108.313 82.5767 109.964 84.2289 110.236 84.8926C110.196 85.0768 110.222 85.1617 110.099 85.244C109.67 85.5325 108.361 85.2778 107.836 85.2117C108.549 86.4258 109.479 87.5501 110.41 88.6053C110.788 89.0347 111.273 89.5025 111.51 90.0224C111.507 90.3374 111.56 90.2047 111.344 90.434C110.555 90.7428 107.312 90.4348 106.223 90.3777C106.447 96.0038 107.386 102.093 107.728 107.846C109.365 107.84 111.139 107.826 112.765 107.944C112.971 108.795 113.114 112.685 113.177 113.802C113.525 113.863 114.583 113.993 114.891 114.011C117.208 114.146 116.694 114.905 116.641 116.717C116.625 117.236 116.629 118.05 116.63 118.632L119.751 118.942C119.969 117.118 120.539 114.565 120.88 112.709L123.126 100.797C123.603 98.3626 124.203 95.7032 124.575 93.2739C122.399 91.4203 119.774 88.9493 122.407 86.0255C123.304 85.0301 124.487 84.1492 125.512 83.2689L132.209 77.5975C136.152 74.3027 140.401 70.4571 144.214 66.9839L148.942 45.4703C145.776 43.4293 146.668 39.3955 150.29 38.4182Z" fill="#382415"/>
<path d="M125.5 93.8953C132.656 97.9154 141.148 100.034 149.353 99.836C149.121 100.966 149.01 102.295 148.806 103.447C148.067 107.618 147.68 111.998 146.917 116.142C144.901 115.985 142.432 115.35 140.411 115.343C140.251 116.209 139.531 121.006 139.561 121.612C140.104 122.117 144.81 122.747 145.967 123.014L143.973 139.256C140.114 142.213 140.843 149.31 141.877 153.479C141.542 153.432 141.019 153.34 140.689 153.367C140.314 153.397 139.806 153.832 139.4 153.877C131.999 154.692 124.506 154.853 117.088 155.493C117.062 154.302 116.974 153.016 116.88 151.821C116.289 144.321 116.259 136.735 115.722 129.241C114.147 127.582 111.946 125.528 110.348 124.042C108.444 122.272 101.849 117.929 99.3616 118.282C95.5997 118.814 89.5813 123.984 87.1645 126.961C85.6958 128.77 84.4546 131.146 84.0751 133.457C83.7838 135.23 84.0473 137.129 84.2059 138.904L84.6597 143.973C85.0625 148.486 85.4028 153.07 85.8735 157.571C82.364 157.982 78.1038 158.124 74.4553 158.453L56.0913 159.761L53.9453 125.801C54.9246 125.638 55.9461 125.525 56.9005 125.407C57.4699 125.308 58.9967 125.391 59.3291 124.884C59.7494 124.243 59.4142 123.06 59.3631 122.315C59.3258 121.774 59.2066 121.013 59.1254 120.447C60.4628 120.147 63.502 119.751 64.9216 119.581C65.0041 120.274 65.311 123.756 65.6502 124.122C66.7223 124.28 74.6448 123.227 75.7039 122.802C75.921 122.424 75.1649 117.416 75.0475 116.501C75.9396 116.346 78.0245 116.183 78.7356 115.588C78.8268 115.512 78.908 115.136 78.8897 115.006C78.6941 113.604 78.561 112.202 78.4615 110.789C80.3455 110.613 82.6787 110.337 84.5283 110.287C84.7083 111.376 84.7227 114.098 85.1282 114.862C85.8289 115.078 90.7836 114.504 91.5556 114.21C91.7745 113.857 91.3275 110.413 91.2688 109.605C93.3716 109.414 96.0347 109.25 98.1355 109.217C98.486 110.517 98.3797 112.887 98.7771 113.754C99.4962 114.083 104.534 114.124 105.146 113.771C105.354 113.118 105.066 109.894 105.017 108.95C107.069 108.829 109.824 108.856 111.886 108.887C112.037 110.138 111.978 113.771 112.433 114.592C112.872 114.88 114.998 115.058 115.72 115.188C115.749 116.141 115.494 118.684 115.756 119.352C116.48 119.754 121.304 120.203 122.138 120.004C122.459 119.569 122.655 117.034 122.736 116.301C124.09 116.4 125.411 116.525 126.762 116.66C126.71 117.423 126.328 120.123 126.402 120.58C127.095 120.865 131.938 121.388 132.687 121.325C132.984 120.817 133.469 116.783 133.153 116.361C132.563 116.148 122.968 115.271 122.087 115.421C121.35 115.987 122.012 118.551 121.029 119.137L120.842 119.064C120.631 118.27 125.101 95.8461 125.5 93.8953Z" fill="#EEECD7"/>
<path d="M134.386 100.312C137.834 99.9137 140.946 102.398 141.323 105.848C141.7 109.297 139.197 112.395 135.745 112.75C132.322 113.103 129.258 110.626 128.884 107.206C128.511 103.786 130.969 100.706 134.386 100.312Z" fill="#382415"/>
<path d="M134.935 104.769C136.33 104.561 136.919 105.548 137.203 106.735C136.946 107.751 136.614 108.044 135.684 108.487C133.944 108.914 132.242 106.115 134.935 104.769Z" fill="white"/>
<path d="M137.417 108.147C138.057 108.662 138.681 109.148 139.336 109.644C138.336 110.83 137.802 111.193 136.325 111.689C136.157 111.715 135.761 111.788 135.61 111.798C135.303 111.808 135.097 111.85 134.828 111.709C134.656 111.434 134.724 111.036 134.739 110.693C134.771 110.3 134.758 109.686 134.917 109.372L135.179 109.339C135.376 109.292 135.698 109.272 135.909 109.251C136.597 109.125 136.979 108.682 137.417 108.147Z" fill="#4CC3DA"/>
<path d="M135.179 109.339C135.376 109.292 135.698 109.272 135.909 109.251C135.737 109.434 135.758 109.333 135.762 109.585C135.771 110.045 136.065 111.356 136.325 111.689C136.157 111.715 135.761 111.788 135.61 111.798C135.303 111.808 135.097 111.85 134.828 111.709C134.656 111.434 134.724 111.036 134.739 110.693C134.771 110.3 134.758 109.686 134.917 109.372L135.179 109.339Z" fill="#484845"/>
<path d="M134.739 110.693C134.833 110.57 134.807 110.609 134.949 110.524L135.382 110.656C135.449 110.971 135.579 111.496 135.61 111.798C135.303 111.808 135.097 111.85 134.828 111.709C134.656 111.434 134.724 111.036 134.739 110.693Z" fill="#4CC3DA"/>
<path d="M134.739 110.693C134.771 110.3 134.758 109.686 134.917 109.372L135.179 109.339C135.317 109.809 135.31 110.181 135.382 110.656L134.949 110.524C134.806 110.609 134.833 110.57 134.739 110.693Z" fill="#48A7A9"/>
<path d="M130.473 103.998C130.926 104.232 132.353 105.277 132.847 105.625C132.564 106.49 132.576 106.638 132.744 107.522L131.608 108.095C131.19 108.343 130.795 108.645 130.401 108.932C129.552 107.003 129.733 105.869 130.473 103.998Z" fill="#E46D50"/>
<path d="M133.217 108.36C133.412 108.403 134.013 108.997 134.332 109.213C134.271 110.038 134.225 110.86 134.088 111.676C133.568 111.497 133.181 111.329 132.679 111.108C131.906 110.674 131.412 110.357 130.882 109.631C131.699 109.101 132.34 108.773 133.217 108.36Z" fill="#FED865"/>
<path d="M138.764 102.799C139.57 103.033 140.098 105.205 140.249 105.961C139.762 106.069 139.048 106.153 138.538 106.228C138.322 106.261 138.31 106.253 138.091 106.23C137.836 105.93 137.383 105.024 137.173 104.636C137.741 103.915 138.116 103.441 138.764 102.799Z" fill="white"/>
<path d="M133.916 101.447C134.202 101.721 134.219 103.628 134.231 104.12L133.347 104.812C132.989 104.605 132.568 104.329 132.211 104.106C131.79 103.827 131.425 103.529 131.03 103.216C131.871 102.193 132.653 101.747 133.916 101.447Z" fill="#EEECD7"/>
<path d="M134.785 101.27C136.114 101.341 136.995 101.536 138.154 102.18L137.303 103.133C136.353 104.463 136.514 103.948 135.015 103.952C135.006 103.16 134.866 102.079 134.785 101.27Z" fill="#E46D50"/>
<path d="M140.18 106.656L140.228 106.717C140.326 107.52 139.914 108.491 139.572 109.2L138.732 108.516L137.733 107.697L138.025 106.87C138.757 106.777 139.444 106.716 140.18 106.656Z" fill="#4CC3DA"/>
<path d="M75.5014 131.082C76.015 131.038 76.7673 130.893 77.1514 131.19C77.5387 131.949 77.4859 133.232 77.5703 134.078C77.6601 134.978 77.6789 135.945 77.7974 136.83C77.8823 137.466 77.9064 138.416 77.0686 138.412C75.9153 138.512 74.6381 138.593 73.4996 138.68L66.4242 139.243C66.0355 139.283 64.8003 139.491 64.739 138.951C64.6089 137.806 63.7622 133.147 64.086 132.308C64.9504 131.867 73.8401 131.225 75.5014 131.082Z" fill="#382415"/>
<path d="M75.8526 132.051C76.1065 132.016 76.0386 132.022 76.2963 132.047C76.5653 132.456 76.7934 136.719 76.8367 137.455C73.2878 137.726 69.5277 138.085 65.9843 138.268C65.7763 138.291 65.7909 138.295 65.6092 138.192C65.3501 137.015 65.1412 134.31 65.0034 133.001C65.5218 132.984 66.0363 132.932 66.5528 132.886C69.6527 132.613 72.7483 132.269 75.8526 132.051Z" fill="#EEECD7"/>
<path d="M129.836 129.38C131.269 129.371 140.293 129.513 141.26 129.944C141.529 130.452 141.333 131.176 141.26 131.732C141.15 132.563 141.201 133.558 140.848 134.309C140.799 134.411 140.28 134.398 140.164 134.391C137.034 134.194 133.906 134.038 130.769 134.006C130.796 134.822 130.852 135.667 130.894 136.485C133.217 136.5 135.758 136.734 138.098 136.861L139.965 136.995C140.542 137.033 141.044 137.301 140.68 137.936C140.292 138.16 138.839 137.98 138.324 137.938C133.501 137.543 128.67 137.289 123.83 137.351C123.583 137.354 123.537 137.297 123.385 137.134C123.284 136.701 123.163 133.455 123.269 133.148C124.03 132.708 128.555 132.964 129.746 132.977C129.719 131.982 129.543 131.042 129.518 130.047C129.507 129.644 129.587 129.638 129.836 129.38Z" fill="#382415"/>
<path d="M130.566 130.353C133.475 130.331 137.434 130.556 140.369 130.793C140.267 131.555 140.207 132.365 140.137 133.133C140.096 133.237 140.129 133.17 140.007 133.317C139.483 133.371 139.013 133.298 138.491 133.269C135.901 133.127 133.294 133.029 130.701 132.983C130.672 132.123 130.611 131.217 130.566 130.353Z" fill="#EEECD7"/>
<path d="M124.251 133.88C125.898 133.852 128.171 133.908 129.808 134.031C129.888 134.821 129.91 135.624 129.941 136.419C127.976 136.32 126.227 136.316 124.261 136.313C124.248 135.508 124.254 134.687 124.251 133.88Z" fill="#EEECD7"/>
<path d="M116.443 122.808C117.882 122.803 125.678 122.992 126.649 123.397C126.909 123.878 126.798 127.139 126.828 127.886C126.838 128.143 126.584 128.273 126.397 128.404L126.037 128.181C125.694 127.642 125.816 124.95 125.82 124.202C123.751 123.967 121.524 123.941 119.44 123.833C118.45 123.782 117.308 123.817 116.344 123.68C116.108 123.506 116.188 123.62 116.121 123.311C116.216 123.018 116.236 123.023 116.443 122.808Z" fill="#382415"/>
<path d="M51.9332 113.471L51.9787 113.507C52.253 114.038 54.9342 155.281 55.1173 159.87C50.0564 162.425 45.4627 163.047 39.8667 162.958C41.3113 161.389 42.3266 159.719 41.9557 157.496C41.4806 154.649 38.7902 154.419 36.5042 154.976C36.4998 154.97 36.4937 154.966 36.4912 154.96C36.3616 154.609 37.0945 152.571 37.2024 152.025C37.5374 150.333 37.5598 147.927 36.5198 146.46C36.0162 145.749 35.254 145.357 34.4043 145.229C32.518 144.946 31.052 145.808 29.5742 146.864C30.1288 143.146 30.5479 138.331 27.7888 135.362C27.3469 128.969 26.9041 121.677 26.729 115.304C33.9896 116.941 44.9464 116.042 51.9332 113.471Z" fill="#EEECD7"/>
<path d="M39.3032 120.359C43.3033 119.991 46.3445 121.73 46.5844 125.997C46.7996 129.825 45.1376 132.152 41.25 132.594C39.6801 132.768 37.4271 132.47 36.1446 131.413C33.7466 129.436 33.2322 124.467 35.1704 122.045C36.1307 120.844 37.823 120.494 39.3032 120.359Z" fill="#382415"/>
<path d="M38.5914 121.364C39.5018 121.318 40.2335 121.275 41.1413 121.385C41.2126 122.695 41.1805 124.187 41.1569 125.514L45.5551 125.335C45.6527 126.15 45.7147 126.775 45.6144 127.597C44.2071 127.6 42.8096 127.609 41.4025 127.564C41.4804 128.943 41.4805 130.268 41.486 131.65C40.631 131.68 39.9788 131.692 39.1208 131.652C38.9053 127.091 39.7767 127.388 35.1278 127.62C35.0515 127.03 34.971 126.472 34.9473 125.877L35.019 125.388C35.1879 123.025 35.8191 122.139 38.1229 121.498C38.1609 122.049 38.3936 124.839 38.2639 125.153L37.8721 125.251L37.8301 125.339C38.1639 125.39 38.4632 125.423 38.7993 125.457C38.7536 124.099 38.7129 122.717 38.5914 121.364Z" fill="#E46D50"/>
<path d="M35.019 125.388C35.188 123.025 35.8192 122.14 38.123 121.498C38.161 122.049 38.3937 124.84 38.264 125.153C37.2965 125.143 35.9901 125.269 35.019 125.388Z" fill="white"/>
<path d="M35.019 125.388C35.99 125.269 37.2964 125.143 38.2639 125.153L37.8721 125.251L37.8301 125.339C38.1639 125.39 38.4632 125.423 38.7993 125.457C38.6054 125.63 35.501 125.803 34.9473 125.877L35.019 125.388Z" fill="#37170C"/>
<path d="M41.6602 121.428C43.4129 121.72 45.1195 122.832 45.3199 124.729C44.126 124.813 42.8764 124.855 41.6765 124.911L41.6602 121.428Z" fill="white"/>
<path d="M41.9268 128.085L45.3768 128.233C45.1627 129.264 45.0105 129.681 44.2703 130.449C43.5457 131.054 42.8904 131.24 42.0108 131.479C41.9979 130.353 41.945 129.216 41.9268 128.085Z" fill="white"/>
<path d="M35.3428 128.086C36.2389 128.06 37.4388 128.116 38.3602 128.126C38.4193 129.248 38.4659 130.352 38.503 131.475C36.5676 130.904 35.858 129.965 35.3428 128.086Z" fill="white"/>
<path d="M48.3093 136.18C48.7271 136.152 49.8883 135.977 49.9701 136.515C50.1719 137.845 50.7458 142.196 50.226 143.275C49.2376 143.709 42.0863 143.694 40.4712 143.693C40.0027 143.705 39.4242 143.774 39.0178 143.582C38.4339 142.912 37.9976 137.481 38.5743 136.726C39.2912 136.453 46.8782 136.269 48.3093 136.18Z" fill="#382415"/>
<path d="M47.6451 137.161C48.1188 137.118 48.682 137.104 49.1644 137.082C49.3372 138.624 49.4671 140.922 49.4929 142.467C48.962 142.472 48.4319 142.507 47.9021 142.54C45.5814 142.685 43.2597 142.71 40.935 142.724L39.6713 142.74C39.4187 140.892 39.2944 139.398 39.2661 137.543C41.8417 137.521 45.0713 137.31 47.6451 137.161Z" fill="#EEECD7"/>
<path d="M24.1717 135.459C30.4794 134.917 29.0626 144.944 28.3278 148.538C28.2986 148.681 28.5105 148.816 28.6092 148.893C29.2106 148.889 29.9575 147.772 30.6084 147.328C36.422 143.365 37.3443 149.8 35.6626 153.884C35.4391 154.427 34.7291 155.62 34.6083 156.153L34.7565 156.352C35.5029 156.593 37.2742 155.498 38.6662 155.664C42.3794 156.106 41.3093 160.485 39.17 162.184C38.311 162.866 37.4746 163.303 36.4238 163.646C30.7274 165.28 23.5879 165.159 17.7755 164.732C15.1694 164.549 9.50199 163.889 7.17585 162.905C6.8881 162.265 6.72593 161.569 6.38948 160.915C5.86477 159.884 5.06061 158.995 4.74782 157.862C4.63545 157.455 4.80142 156.503 5.38227 156.61C6.47654 156.811 7.3401 157.79 8.12673 158.489C8.36401 158.53 8.48745 158.421 8.70413 158.299C8.84402 157.928 8.60902 157.261 8.49713 156.883C7.50914 153.553 7.09737 150.305 7.68363 146.867C8.76597 140.519 13.6279 139.4 14.5345 146.643C14.5935 147.115 14.7785 148.493 15.0013 148.872C15.3243 149.028 15.1606 149.001 15.5083 148.969C15.9283 148.648 15.922 147.504 16.0198 146.935C16.8002 142.398 19.2823 136.725 24.1717 135.459Z" fill="#628E55"/>
<path d="M157.897 135.121C162.484 134.791 162.778 140.597 162.223 143.7C162.117 144.294 161.801 145.78 161.864 146.307C162.077 146.591 161.943 146.512 162.258 146.588C162.812 146.419 163.959 145.087 164.734 144.677C170.231 141.768 171.131 147.76 169.547 151.524C169.24 152.253 168.531 153.129 168.328 153.844L168.44 153.997C169.17 154.256 170.73 153.5 171.782 153.568C175.507 153.811 175.057 157.599 172.813 159.483C170.592 161.346 167.674 161.673 164.894 162.006C161.182 162.348 157.238 162.354 153.523 162.123C150.198 161.924 146.688 161.533 143.507 160.485C142.218 160.038 140.949 159.407 140.31 158.111C139.883 157.247 139.473 154.925 140.712 154.421C141.306 154.179 142.117 154.996 142.569 155.264C142.735 155.363 142.909 155.332 143.08 155.236C143.55 154.925 143.342 154.53 143.228 154.101C143.091 153.579 142.738 152.771 142.636 152.27C142.04 149.328 141.841 145.95 142.648 143.041C142.996 141.842 143.621 140.729 144.759 140.132C147.326 138.785 148.55 142.538 149.077 144.329C149.279 145.013 149.374 145.817 149.666 146.476C149.779 146.732 149.891 146.816 150.144 146.896C150.747 146.609 150.674 145.41 150.729 144.783C151.097 140.613 153.12 135.533 157.897 135.121Z" fill="#628E55"/>
<path d="M91.2839 90.2149C95.5315 90.1694 100.984 90.0434 105.169 90.3422C105.414 94.2454 105.975 98.1896 106.277 102.096C106.425 104.007 106.592 105.963 106.804 107.864C106.278 107.856 104.576 107.718 104.224 108.074C103.901 108.87 104.181 111.934 104.237 113.021C102.678 112.999 101.163 112.975 99.6028 113.018C99.5047 112.119 99.3417 108.952 98.9012 108.386C98.0757 108.059 92.1157 108.589 90.717 108.642C90.5082 108.711 90.5224 108.709 90.3572 108.858C90.1296 109.483 90.5795 112.489 90.6398 113.453C89.1589 113.551 87.3557 113.747 85.8888 113.924C85.7336 112.994 85.6183 109.938 85.2994 109.392C84.6221 109.147 79.1302 109.793 78.0942 109.892C77.5412 105.482 77.3538 100.918 76.84 96.4907C76.6354 94.7284 76.4304 92.7398 76.3594 90.9806C76.8836 90.9432 77.4325 90.8834 77.9572 90.8273C82.3952 90.3524 86.8261 90.3283 91.2839 90.2149Z" fill="#EEECD7"/>
<path d="M84.2677 93.7997C86.6636 93.9375 87.919 95.9215 88.5794 98.001C88.95 99.1677 89.9579 104.768 89.4567 105.728C88.8524 106.14 87.0658 106.121 86.2424 106.16C85.2482 106.187 82.3292 106.519 81.57 106.36C81.3451 106.188 81.2086 105.968 81.175 105.679C80.8057 102.48 80.038 94.6628 84.2677 93.7997Z" fill="#382415"/>
<path d="M84.139 94.7498C88.0882 94.8074 88.5143 102.199 88.5966 105.081L86.0664 105.275C84.7449 105.355 83.4197 105.451 82.0966 105.486C81.7339 103.435 81.7086 99.4876 82.2351 97.5027C82.5775 96.2116 82.9809 95.4321 84.139 94.7498Z" fill="#484845"/>
<path d="M97.5795 93.3743C101.97 93.4915 102.422 100.935 102.706 104.098C102.837 105.561 101.644 105.253 100.606 105.352C100.098 105.4 99.5345 105.383 99.0299 105.396C98.3361 105.464 95.1513 105.703 94.6963 105.431C94.3305 104.937 94.2516 104.158 94.1954 103.553C93.9134 100.522 93.2555 93.783 97.5795 93.3743Z" fill="#382415"/>
<path d="M97.4484 94.2307C101.061 94.4536 101.587 101.552 101.787 104.328C101.034 104.402 100.149 104.416 99.3826 104.446C98.2648 104.547 96.5667 104.546 95.3974 104.59C94.9525 102.025 94.1005 95.1571 97.4484 94.2307Z" fill="#484845"/>
<path d="M97.8528 123.213L97.9927 123.305C98.6051 130.866 98.8549 138.446 99.3774 146.011C99.6199 149.524 99.9038 153.099 100.029 156.615C96.8721 156.811 93.4488 157.118 90.3295 157.249C90.1917 157.255 90.1066 157.245 89.9692 157.235C89.9565 157.215 89.9437 157.195 89.9309 157.175C89.3898 150.172 88.6594 143.156 88.1521 136.144C87.8535 132.014 91.0701 128.222 94.0626 125.793C95.2556 124.825 96.535 124.007 97.8528 123.213Z" fill="#A2804A"/>
<path d="M95.0065 141.622C96.3253 141.46 97.5301 142.386 97.7116 143.703C97.8932 145.019 96.9843 146.237 95.6708 146.438C94.8037 146.571 93.9323 146.226 93.3906 145.536C92.8488 144.846 92.7209 143.918 93.0555 143.107C93.3902 142.296 94.1357 141.729 95.0065 141.622Z" fill="#382415"/>
<path d="M94.9595 142.663C95.4603 142.531 95.9931 142.683 96.3494 143.059C96.7057 143.435 96.8288 143.975 96.6704 144.468C96.512 144.961 96.0973 145.329 95.5888 145.427C94.838 145.571 94.1078 145.095 93.938 144.349C93.7682 143.604 94.2202 142.858 94.9595 142.663Z" fill="#FED865"/>
<path d="M94.2258 131.025C95.5331 130.761 96.8053 131.612 97.0617 132.92C97.3182 134.229 96.4611 135.497 95.151 135.746C93.8509 135.993 92.5953 135.144 92.3408 133.845C92.0862 132.547 92.9286 131.286 94.2258 131.025Z" fill="#382415"/>
<path d="M94.3166 132.009C96.2724 132.024 96.9393 133.902 95.1317 134.74C93.0587 134.844 92.5161 132.85 94.3166 132.009Z" fill="#FED865"/>
<path d="M100.966 122.961C104.272 124.339 111.567 129.148 111.533 132.488C111.515 134.322 113.096 155.366 112.809 155.725L112.503 155.748C109.418 156.033 106.138 156.184 103.036 156.371C102.915 152.971 102.611 149.233 102.405 145.8L100.966 122.961Z" fill="#A2804A"/>
<path d="M104.962 130.214C106.276 129.905 107.591 130.725 107.892 132.041C108.194 133.357 107.367 134.667 106.049 134.961C104.742 135.252 103.445 134.433 103.146 133.128C102.847 131.823 103.658 130.521 104.962 130.214Z" fill="#382415"/>
<path d="M105.058 131.259C105.801 131.01 106.606 131.411 106.854 132.155C107.102 132.899 106.7 133.703 105.956 133.95C105.213 134.197 104.411 133.796 104.163 133.053C103.915 132.311 104.315 131.508 105.058 131.259Z" fill="#FED865"/>
<path d="M106.311 140.833C107.637 140.782 108.759 141.806 108.829 143.131C108.9 144.457 107.893 145.594 106.568 145.683C105.694 145.743 104.856 145.327 104.374 144.595C103.893 143.862 103.843 142.928 104.244 142.149C104.646 141.37 105.435 140.867 106.311 140.833Z" fill="#382415"/>
<path d="M106.099 141.873C106.852 141.705 107.6 142.173 107.779 142.924C107.958 143.674 107.501 144.43 106.753 144.619C106.259 144.744 105.736 144.594 105.385 144.226C105.033 143.857 104.907 143.328 105.055 142.841C105.203 142.353 105.602 141.984 106.099 141.873Z" fill="#FED865"/>
<path d="M74.9336 91.1784C75.0941 91.1464 75.0774 91.165 75.2502 91.1916C75.6035 91.7593 77.2666 112.419 77.5369 115.099C76.7405 115.21 74.6265 115.388 74.1257 115.903C73.9563 116.697 74.5954 121.065 74.7195 122.176C73.3287 122.384 71.7901 122.542 70.384 122.721C70.1553 122.754 70.1147 122.756 69.8838 122.749C69.5658 122.35 67.3824 95.9544 67.1309 92.7066C69.5357 92.0619 72.4658 91.4925 74.9336 91.1784Z" fill="#EEECD7"/>
<path d="M70.9396 96.0701C72.8303 95.8448 73.5245 98.4484 73.7848 99.9475C74.1518 102.062 74.6161 104.762 74.361 106.868C74.3285 107.137 73.0407 107.278 72.7932 107.316L72.091 107.46C71.5531 107.568 70.7498 107.817 70.2969 107.516C69.6938 106.546 69.4614 100.402 69.6875 98.9303C69.849 97.8789 70.0521 96.7741 70.9396 96.0701Z" fill="#382415"/>
<path d="M71.2964 96.9872L71.3705 97.0322C73.1491 98.096 73.423 104.094 73.4903 106.152L72.4349 106.367C71.9162 106.445 71.5442 106.535 71.0367 106.66C70.5996 104.71 70.0733 98.5402 71.2964 96.9872Z" fill="#484845"/>
<path d="M53.0686 104.502C53.1368 104.505 53.17 104.5 53.2342 104.529C53.7441 104.765 55.5436 107.69 55.808 108.287C55.9945 108.707 56.0338 109.014 55.848 109.442C55.1521 111.046 52.9201 112.007 51.4055 112.587C45.411 114.883 31.466 116.464 25.5258 113.754C24.5006 113.286 23.3793 112.553 23.0026 111.437C22.5568 110.116 24.2085 107.678 24.8167 106.467C26.6158 107.302 29.6361 107.571 31.644 107.713C31.6284 108.191 31.5908 108.7 31.563 109.18C31.5231 110.145 31.2664 113.513 31.6783 114.267C31.9344 114.438 31.8135 114.431 32.045 114.387C32.2385 114.155 32.3558 113.849 32.3698 113.554C32.4595 111.666 32.4526 109.643 32.5087 107.754C35.1494 107.856 37.2374 107.795 39.8875 107.553C39.9697 108.708 40.1239 113.588 40.7439 114.245C41.0606 114.274 40.9089 114.302 41.2044 114.115C41.4294 113.698 40.7528 108.313 40.6778 107.433C43.0554 107.19 44.9906 106.796 47.313 106.271C47.4693 107.208 48.2931 112.253 48.8189 112.657C49.2244 112.666 49.0587 112.726 49.3591 112.551C49.4545 112.091 48.2188 106.927 48.0511 106.072C49.7077 105.73 51.4917 105.101 53.0686 104.502Z" fill="#E46D50"/>
<path d="M99.747 119.215C101.514 119.438 103.933 120.868 105.503 121.769C109.04 123.798 111.928 126.794 114.725 129.719C114.983 132.648 115.07 136.222 115.225 139.203L116.123 155.509C115.403 155.572 114.636 155.61 113.911 155.658L112.939 139.637C112.869 138.506 112.56 131.599 112.266 131.068C109.918 126.821 104.649 123.075 100.055 121.64C99.4378 121.447 98.8709 121.657 98.307 121.885C95.652 123.148 92.7537 125.429 90.7681 127.554C88.8724 129.582 87.0243 132.622 87.0709 135.492C87.1039 137.529 87.479 139.673 87.62 141.723C87.9782 146.939 88.6557 152.179 88.8863 157.401C88.2664 157.406 87.4539 157.491 86.8206 157.539L85.4507 141.956C85.0047 136.505 84.0414 132.259 87.8533 127.727C90.3198 124.795 95.8947 119.643 99.747 119.215Z" fill="url(#paint0_linear_207_237)"/>
<path d="M82.6056 77.0785C85.4938 77.067 88.3833 77.0317 91.2681 77.191C91.3892 78.2363 91.8543 81.7266 92.2767 82.5373C92.5625 82.6994 92.4096 82.6583 92.7578 82.6389L92.8548 82.4987C92.8788 81.3668 92.2282 78.4858 91.9824 77.246C94.3747 77.3363 96.7823 77.5573 99.1719 77.7107L101.14 81.8156C101.376 82.2988 101.718 83.0561 102.241 83.2364C102.527 83.1318 102.418 83.2187 102.586 82.9772C102.599 82.5593 100.445 78.4719 100.094 77.777C101.441 77.9466 102.885 78.0718 104.238 78.178C105.749 80.7903 106.528 82.1132 108.641 84.3366C96.4571 82.8158 84.4091 82.0038 72.1914 83.8019C73.1162 81.7539 73.9527 79.587 74.9141 77.5719C77.0894 77.3504 79.0864 77.2361 81.2684 77.1184C81.5813 77.1039 81.6535 77.0459 81.8833 77.1744C82.0468 78.2328 81.7583 82.2099 82.4818 82.7347C82.9464 82.6237 82.9113 82.3097 82.9016 81.8564C82.8678 80.2798 82.7453 78.6454 82.6056 77.0785Z" fill="#E46D50"/>
<path d="M85.0804 83.8955C86.0559 83.8581 87.0554 83.863 88.0335 83.8563C88.3003 85.3714 88.4858 86.9831 88.8463 88.4806C88.9266 88.814 89.0113 88.9037 89.2748 89.0433L89.4352 88.9917C89.8426 88.2993 88.9989 84.8435 88.8066 83.8512C92.0258 83.9495 95.1908 84.0117 98.4137 84.2084L98.4587 84.3534C98.6784 85.0493 100.06 89.2737 100.918 88.9102C101.113 88.2095 99.6377 85.2242 99.2738 84.2655C101.659 84.5573 104.169 84.738 106.6 85.0189C107.039 85.904 107.583 86.6215 108.158 87.415C108.725 88.1638 109.269 88.8471 109.861 89.5727C107.606 89.4773 105.318 89.2428 103.061 89.2201C94.4295 89.1334 85.7974 89.2507 77.1929 89.938C77.3794 88.0355 77.4882 86.1195 77.7079 84.22C80.1864 84.0541 82.5988 83.9456 85.0804 83.8955Z" fill="#E46D50"/>
<path d="M134.51 89.674C136.631 90.5803 139.384 91.3184 141.641 91.7686C141.187 93.4021 140.668 95.5083 140.425 97.2252C140.395 97.4435 140.548 97.5674 140.679 97.6789L140.828 97.6379C141.452 96.9425 142.216 93.0069 142.475 91.8923C144.514 92.3643 147.321 92.5362 149.41 92.5743C149.175 93.4515 147.565 98.0603 148.028 98.4996C148.144 98.4962 148.301 98.5177 148.352 98.4375C149.099 97.2774 149.813 94.2511 150.072 93.0112L150.141 92.7369C150.357 92.5418 152.916 92.3376 153.518 92.2527C153.73 93.014 154.779 95.9718 154.565 96.736C154.353 97.4904 153.109 98.2066 152.264 98.3793C146.021 99.6566 137.472 97.9235 131.747 95.7335C132.067 95.1789 132.492 94.1486 132.766 93.5401L134.51 89.674Z" fill="#E46D50"/>
<path d="M38.3929 99.6927C40.7048 99.4478 42.428 99.1546 44.6824 98.6094C45.2282 100.886 45.5935 103.245 46.2233 105.508C45.0828 105.711 43.9555 105.958 42.8082 106.131C37.1495 106.984 30.8071 107.265 25.2705 105.678L28.4367 99.2044C28.8027 99.2956 31.0189 99.6772 31.1428 99.7794C31.5095 99.8555 31.5591 99.8817 31.9198 99.8284C32.2371 99.7827 34.0133 99.8869 34.453 99.8992C35.5829 99.9307 36.5325 99.8887 37.6582 99.8296C37.7246 101.323 37.867 102.826 37.9689 104.318C38.0062 104.865 37.9651 106.154 38.3263 106.495C38.587 106.573 38.5684 106.566 38.8269 106.475C39.0962 106.077 38.9326 105.239 38.8797 104.758C38.6942 103.07 38.5278 101.385 38.3929 99.6927Z" fill="#E46D50"/>
<path d="M31.1428 99.7794C31.5095 99.8555 31.559 99.8817 31.9197 99.8285C31.9143 100.815 31.7594 105.775 31.3922 106.323C31.1159 106.426 31.2509 106.428 30.9742 106.303C30.485 105.647 31.0502 100.862 31.1428 99.7794Z" fill="#37170C"/>
<path d="M151.387 47.802C152.55 47.9584 154.962 47.9563 156.218 47.9984L166.98 48.2731C166.127 48.9254 162.207 52.1549 161.952 52.9561C162.149 53.5388 163.954 55.08 164.525 55.6076C165.115 56.182 165.701 56.7392 166.303 57.301C161.082 57.3728 154.801 57.0996 149.534 56.9018C150.245 54.0661 150.806 50.7019 151.387 47.802Z" fill="#E46D50"/>
<path d="M124.152 163.684C124.815 163.503 130.111 166.156 131.162 166.664L140.83 171.321C136.999 171.662 133.042 171.836 129.187 172.163C128.369 172.183 127.436 172.266 126.612 172.32C125.362 171.618 124.055 171.068 122.777 170.438C119.446 168.796 115.844 167.343 112.566 165.641C113.75 165.547 115.295 165.215 116.482 165.016C119.036 164.588 121.591 164.074 124.152 163.684Z" fill="#FED865"/>
<path d="M109.011 157.009C109.209 156.991 109.633 156.949 109.815 157.01C112.956 158.065 115.968 159.611 118.992 160.959C120.317 161.55 121.623 162.162 122.898 162.81C122.345 162.955 121.765 163.042 121.201 163.146C117.854 163.768 114.508 164.411 111.142 164.924L110.192 164.483C105.784 162.374 101.271 160.418 96.7886 158.47C96.3708 158.288 96.0108 158.126 95.6128 157.901L109.011 157.009Z" fill="#FED865"/>
<path d="M51.5151 67.9602L51.766 67.9398L51.8423 68.0207C51.0372 68.9354 48.7039 71.6158 48.2001 72.6216C49.0473 73.4609 51.4345 74.9776 52.6582 76.0628C51.6791 76.137 49.723 76.5322 48.6909 76.7046L41.1416 77.9152C39.9531 78.0991 38.6436 78.3267 37.4576 78.4371C37.1963 76.1516 36.9691 73.7367 36.6265 71.4739C36.8896 71.2958 37.3885 70.9444 37.685 70.8738C38.9566 70.5709 40.3066 70.3083 41.5863 70.0342L51.5151 67.9602Z" fill="#E46D50"/>
<path d="M88.0249 69.332C89.9008 69.3844 93.1923 69.5704 95.0157 69.7924C95.4274 70.9508 96.5615 75.9875 97.3576 76.3893C97.4774 76.3441 97.5308 76.3545 97.5944 76.2318C97.8317 75.7742 96.1616 70.662 95.9231 69.8548C97.6519 70.0049 99.3153 70.1853 101.034 70.4321C101.381 71.2097 101.876 71.9928 102.315 72.7295C103.548 74.6478 104.373 75.7245 105.893 77.4413C102.398 76.9908 98.9645 76.6598 95.4645 76.3501C94.3129 76.2481 89.3629 76.1167 88.7365 75.9217C88.5812 75.4751 88.0871 70.1584 88.0249 69.332Z" fill="#E46D50"/>
<path d="M92.0709 158.152C92.4216 158.127 93.3202 158.034 93.6174 158.16C97.1434 159.66 100.654 161.219 104.15 162.79C105.894 163.575 107.737 164.397 109.406 165.32C107.347 165.69 105.306 166 103.25 166.405C103.18 166.417 102.65 166.514 102.65 166.514C98.7727 164.656 88.6783 160.259 85.6558 158.6L92.0709 158.152Z" fill="#ACD27B"/>
<path d="M125.064 84.8716C125.552 85.0486 127.308 86.3177 127.952 86.6885C127.426 87.664 125.545 90.814 125.706 91.8026L125.85 91.8691C126.618 91.4752 128.187 88.0235 128.669 87.0757C130.422 88.0247 131.821 88.6015 133.683 89.3749C133.549 89.721 133.371 90.1121 133.225 90.4586C132.5 91.9883 131.595 93.8979 131.163 95.4932C128.419 94.4355 125.635 93.0885 123.573 90.9501C120.974 88.2548 123.023 86.7458 125.064 84.8716Z" fill="#E46D50"/>
<path d="M78.8241 69.0787C81.744 69.0482 84.2672 69.1363 87.1827 69.2657C87.3133 71.0922 87.5557 74.1329 88.0245 75.8459L87.9697 75.9271L87.5612 75.9391C84.4092 75.8849 81.5783 75.925 78.4453 76.1046C78.6364 73.721 78.494 71.6581 78.8241 69.0787Z" fill="#E46D50"/>
<path d="M110.372 166.053C111.147 165.873 114.472 167.667 115.468 168.13L124.694 172.399L118.406 172.773C117.983 172.791 116.54 172.948 116.272 172.855C114.435 172.214 112.464 171.052 110.699 170.238C108.499 169.223 106.329 168.294 104.181 167.229L110.372 166.053Z" fill="#ACD27B"/>
<path d="M31.4504 92.4539C32.3756 92.6307 33.078 92.7253 34.007 92.8321C34.0049 93.7151 33.9609 98.1195 34.3287 98.5723C34.5964 98.6041 34.6688 98.6394 34.9186 98.5438C35.0089 98.0643 34.8571 93.6386 34.8506 92.8509C36.6511 92.8188 37.7255 92.7559 39.5125 92.5055C39.6093 93.6158 39.8071 94.6432 40.0097 95.7357C40.1892 96.6295 40.4125 97.5276 40.6234 98.4156C36.5882 98.9442 32.8303 99.0792 28.7974 98.3763L31.4504 92.4539Z" fill="#E46D50"/>
<path d="M144.573 67.9941C145.343 68.2423 145.893 68.3139 146.69 68.3777C147.409 70.6453 148.361 74.0851 148.944 76.3828C146.928 76.261 145.286 76.1479 143.308 75.7468C141.459 75.3641 139.707 74.6824 137.998 73.899C140.112 71.8531 142.456 70.1042 144.573 67.9941Z" fill="#E46D50"/>
<path d="M36.0725 83.5792C36.1929 83.5699 36.3098 83.5652 36.43 83.5803C38.2281 83.8071 41.7487 89.1172 42.8761 90.6219C41.2538 91.1083 40.1418 91.3966 38.451 91.6406C36.4612 91.9962 33.9118 91.9208 31.9297 91.6075C32.746 89.8335 34.9255 84.7392 36.0725 83.5792Z" fill="#E46D50"/>
<path d="M118.074 156.401C118.442 156.38 119.989 156.268 120.201 156.368C123.723 158.034 127.602 159.615 131.081 161.312C129.308 161.806 126.92 161.979 124.929 162.48C124.799 162.499 124.656 162.502 124.533 162.444C120.402 160.518 116.302 158.509 112.058 156.84C113.453 156.602 116.547 156.504 118.074 156.401Z" fill="#ACD27B"/>
<path d="M140.069 165.607C140.744 165.447 148.207 169.427 149.355 169.872C149.576 169.958 150.294 170.33 150.51 170.452C150.167 170.657 144.908 171.016 144.166 171.054C143.852 171.087 142.873 171.21 142.628 171.098C139.58 169.714 136.456 168.224 133.48 166.702C135.588 166.505 137.977 166.014 140.069 165.607Z" fill="#ACD27B"/>
<path d="M141.037 83.9056C143.254 84.4688 144.992 84.7239 147.272 84.9489C146.748 86.5659 146.268 89.5621 146.014 91.2297C145.707 91.3707 145.743 91.3138 145.35 91.2746C143.22 91.0332 140.954 90.5806 138.867 90.1153C139.646 88.0521 140.369 86.0075 141.037 83.9056Z" fill="#E46D50"/>
<path d="M134.877 81.6216C136.566 82.4372 138.515 83.1507 140.3 83.7174C140.007 84.4743 138.229 89.5697 137.968 89.7708L137.615 89.6808C135.401 88.994 133.943 88.4101 131.825 87.4846C132.839 85.7048 134.049 83.484 134.877 81.6216Z" fill="#E46D50"/>
<path d="M99.5693 122.532C99.8052 122.547 99.7187 122.527 99.9325 122.638C100.211 123.19 101.1 139.752 101.228 141.771L101.841 151.884C101.926 153.354 102.092 154.893 102.11 156.351C101.923 156.536 101.832 156.497 101.52 156.56C101.219 156.537 101.237 156.585 101.019 156.436C100.759 154.371 100.663 151.478 100.525 149.341L99.5839 133.64L99.056 125.536C99.0237 125.024 98.8395 123.132 98.8901 122.792C99.0606 122.6 99.3034 122.59 99.5693 122.532Z" fill="#A2804A"/>
<path d="M107.857 60.6953C108.19 60.6574 108.322 60.6199 108.651 60.7048C107.819 61.5679 106.637 62.3104 105.96 63.3363C106.677 64.0834 107.904 64.562 108.867 65.0159C107.241 65.2555 104.264 65.3783 102.538 65.4915C101.7 65.6097 100.4 65.6675 99.5115 65.7517C99.4918 64.2681 99.3879 62.7585 99.3018 61.2749C102.061 61.1773 105.055 60.866 107.857 60.6953Z" fill="#E46D50"/>
<path d="M86.3841 56.8256L86.4214 56.8437C86.3878 57.04 86.0661 57.2038 85.8607 57.3554C84.9673 58.0133 84.5736 58.3387 84.0083 59.2818C84.739 59.8546 86.3312 60.6848 87.2135 61.205L80.881 61.768L77.8769 61.9698C77.7876 60.9339 77.7531 59.7456 77.7002 58.6939C78.192 58.2981 78.6397 57.9681 78.9711 57.428C81.2872 57.3162 83.9555 56.9795 86.3841 56.8256Z" fill="#E46D50"/>
<path d="M71.77 85.0155C71.8554 84.9976 71.7951 85.0043 71.9495 85.0475C71.9233 85.4546 69.1902 90.2835 68.816 91.3391C66.6644 91.6328 63.9365 92.5282 61.8981 93.2108L61.7485 93.24C61.7487 93.1929 66.7905 86.7241 67.3131 85.9255C68.8241 85.5868 70.2474 85.2983 71.77 85.0155Z" fill="#E46D50"/>
<path d="M145.861 77.1591C146.639 77.3457 148.378 77.3709 149.226 77.3985C149.768 79.5231 150.418 81.8327 151.028 83.9356L149.613 83.9648C147.709 83.9679 146.412 83.8271 144.512 83.6285C144.977 81.485 145.445 79.311 145.861 77.1591Z" fill="#E46D50"/>
<path d="M151.04 85.0324C151.249 84.9937 151.171 84.999 151.386 85.0401C151.576 85.4345 151.673 85.8786 151.785 86.3013C152.225 87.9516 152.722 89.5826 153.22 91.2167C151.888 91.4853 150.394 91.5203 149.04 91.5006C148.211 91.5046 147.43 91.4443 146.605 91.3883C147.21 89.8514 147.68 86.8063 148.048 85.0459C149.03 85.09 150.059 85.0818 151.04 85.0324Z" fill="#E46D50"/>
<path d="M131.511 79.5066C131.552 79.52 133.858 81.0978 134.295 81.3249C133.458 82.4727 131.785 85.8127 131.09 87.1678L129.493 86.354C128.054 85.6043 127.248 85.0833 125.926 84.1449C127.714 82.7656 129.745 80.9758 131.511 79.5066Z" fill="#E46D50"/>
<path d="M48.0479 97.4775C48.3381 97.7655 49.1328 98.8274 49.4053 99.1823C50.5174 100.631 51.5899 102.144 52.6541 103.631C51.5646 104.013 50.5839 104.34 49.4772 104.667L46.9895 105.316C46.9211 104.796 46.8143 104.287 46.687 103.779C46.241 101.999 45.8824 100.199 45.4678 98.412C46.3546 98.1177 47.1762 97.8089 48.0479 97.4775Z" fill="#E46D50"/>
<path d="M141.261 76.2474C142.639 76.6398 143.736 76.8576 145.133 77.0972C144.634 78.7298 144.044 81.7817 143.726 83.4657C143.322 83.384 142.894 83.2753 142.49 83.1804C141.371 82.966 139.473 82.3476 138.42 81.9547C139.333 80.0171 140.252 78.1367 141.261 76.2474Z" fill="#E46D50"/>
<path d="M137.2 74.5885C137.669 74.7326 139.678 75.7349 140.469 76.0417C139.505 77.9633 138.492 79.6735 137.712 81.6865L136.472 81.1676C134.905 80.5269 133.67 79.8495 132.356 78.7867C133.987 77.4123 135.629 76.0304 137.2 74.5885Z" fill="#E46D50"/>
<path d="M43.4048 91.418C44.0309 91.9576 46.813 95.7223 47.4894 96.6162C46.4507 97.021 45.1773 97.3889 44.0987 97.664L41.4531 98.2385C40.9997 96.667 40.514 93.9663 40.2827 92.3447C41.4608 92.08 42.2905 91.8834 43.4048 91.418Z" fill="#E46D50"/>
<path d="M76.131 84.4094C76.3203 84.3746 76.8329 84.344 77.0488 84.3247C76.7858 85.7538 76.3562 88.6254 76.3748 90.0452C74.5485 90.2169 72.4776 90.537 70.6839 90.8933L69.8687 91.0566C70.8875 88.9576 72.0306 86.8642 73.086 84.7715L76.131 84.4094Z" fill="#E46D50"/>
<path d="M150.442 39.3464C152.03 39.0173 153.586 40.0344 153.922 41.6215C154.258 43.2088 153.248 44.769 151.662 45.1118C150.067 45.4569 148.495 44.4391 148.157 42.8421C147.819 41.2452 148.843 39.6775 150.442 39.3464Z" fill="#FED865"/>
<path d="M141.274 116.332C142.567 116.608 145.343 116.903 146.811 117.113L146.133 122.019L140.586 121.058C140.749 119.531 141.038 117.859 141.274 116.332Z" fill="#EEECD7"/>
<path d="M73.4542 77.806C73.6665 77.7633 73.6523 77.7671 73.8645 77.8176C73.8232 78.192 71.5276 83.1485 71.1928 83.9917C69.6155 84.2055 66.9053 84.9269 65.3878 85.4073L65.033 85.4706L65 85.3904C66.1106 84.0972 67.2375 82.9022 68.2632 81.5201C69.0078 80.5167 69.6672 79.4256 70.4304 78.4571C71.464 78.2024 72.4099 78.0095 73.4542 77.806Z" fill="#E46D50"/>
<path d="M132.508 162.003C132.921 162.033 138.146 164.519 138.917 164.876C136.838 165.273 134.311 165.519 132.299 165.997C131.945 166.03 130.767 165.37 130.34 165.173L125.946 163.186C127.163 163.015 131.561 162.378 132.508 162.003Z" fill="#ACD27B"/>
<path d="M34.6358 65.3292C38.3126 65.4533 38.9187 70.2812 34.838 70.8892C30.8414 70.683 30.5714 65.9288 34.6358 65.3292Z" fill="#FED865"/>
<path d="M77.7106 69.2088C77.8371 69.1851 77.7584 69.1904 77.9463 69.2297C77.9714 69.3185 77.5998 74.9695 77.5923 75.6965C77.7264 75.8375 77.8041 75.9229 77.9233 76.0761C77.626 76.2095 74.2415 76.5262 73.5843 76.6266C73.3099 76.672 73.2956 76.6938 73.0293 76.6394C72.9892 76.0247 75.3015 70.3844 75.6747 69.4669C76.3375 69.3637 77.0414 69.2895 77.7106 69.2088Z" fill="#E46D50"/>
<path d="M149.868 45.8597C150.149 45.9248 150.495 45.9779 150.784 46.0306C150.642 46.5492 150.521 47.1146 150.409 47.6436C149.196 53.4118 148.035 59.191 146.789 64.9529C146.615 65.7575 146.474 66.6214 146.221 67.4009C145.887 67.3432 145.469 67.2799 145.249 67.0155C145.323 66.3056 145.631 65.1786 145.799 64.4425L146.769 60.0933L149.868 45.8597Z" fill="#FED865"/>
<path d="M74.4033 69.703L74.5708 69.7046L74.6457 69.79C74.4481 70.4877 74.0322 71.1462 73.7941 71.8129C73.1969 73.4842 72.5114 75.1601 72.0204 76.8606C70.7536 77.1071 69.9541 77.2716 68.7527 77.7283C68.6616 77.7524 68.596 77.7413 68.4971 77.7403C68.5298 77.2852 71.8387 72.4072 72.1916 71.5417C72.2665 71.3582 72.9329 70.3407 73.0793 70.115C73.5005 69.9509 73.9667 69.8292 74.4033 69.703Z" fill="#E46D50"/>
<path d="M127.849 116.815C129.231 116.999 130.874 117.093 132.281 117.2C132.144 118.038 132.063 119.47 131.991 120.351C130.498 120.219 129.031 119.973 127.493 119.851C127.565 118.919 127.735 117.76 127.849 116.815Z" fill="#EEECD7"/>
<path d="M97.7348 56.2189C98.8608 56.0437 99.9171 56.8108 100.099 57.9359C100.28 59.0611 99.5191 60.1216 98.395 60.3095C97.2621 60.4988 96.1913 59.7303 96.0083 58.5962C95.8251 57.4622 96.5998 56.3957 97.7348 56.2189Z" fill="#FED865"/>
<path d="M75.775 54.2049C76.8237 53.9217 77.9027 54.5463 78.1792 55.5968C78.4557 56.6472 77.8241 57.7221 76.7719 57.9918C75.7291 58.2591 74.6662 57.6346 74.3921 56.5936C74.1181 55.5526 74.7358 54.4857 75.775 54.2049Z" fill="#FED865"/>
<path d="M35.2544 71.6887C35.614 71.7318 35.5088 71.6499 35.7144 71.8383C36.2119 74.7125 36.2866 77.7999 36.6988 80.6945C36.7564 81.099 37.0275 82.2764 36.8565 82.5887L36.6288 82.5924C36.3049 82.5742 36.2778 82.5807 35.9542 82.485C35.8364 82.0958 34.8072 72.1595 34.8944 71.8664L35.2544 71.6887Z" fill="#FED865"/>
<path d="M76.1045 58.9697C76.4016 58.9656 76.48 58.9514 76.7721 59.0388C76.9071 59.7169 76.9352 61.4647 76.9678 62.2542L77.2209 68.3302C76.9505 68.3677 76.8419 68.4065 76.5835 68.3135C76.5021 67.8588 76.4933 67.3998 76.4708 66.9394C76.3413 64.2836 76.2703 61.6236 76.1045 58.9697Z" fill="#FED865"/>
<path d="M97.7344 61.2213C97.998 61.2443 98.0401 61.2477 98.2932 61.319C98.5505 61.8278 98.7017 68.2487 98.7409 69.3312C98.4623 69.2436 98.4053 69.2475 98.1765 69.062C98.033 68.3408 97.9972 66.8751 97.9592 66.0839L97.7344 61.2213Z" fill="#FED865"/>
</g>
<defs>
<linearGradient id="paint0_linear_207_237" x1="115.203" y1="136.573" x2="85.1283" y2="139.607" gradientUnits="userSpaceOnUse">
<stop stop-color="#F0EEDA"/>
<stop offset="1" stop-color="#FCFCFA"/>
</linearGradient>
<clipPath id="clip0_207_237">
<rect width="180" height="180" fill="white"/>
</clipPath>
</defs>
</svg>
