<svg width="180" height="180" viewBox="0 0 180 180" fill="none" xmlns="http://www.w3.org/2000/svg">
<g clip-path="url(#clip0_207_414)">
<path d="M94.0187 65.7814L94.495 65.7656C110.148 65.3415 124.711 74.1641 131.467 88.2816C133.815 93.1866 135.118 98.0072 135.245 103.454C135.545 116.232 128.983 129.045 118.38 136.183C112.667 140.029 104.502 142.844 97.6245 143.009C87.3316 143.476 77.4959 140.411 69.6916 133.535C61.6621 126.459 56.974 116.115 56.4895 105.48C56.2654 100.559 56.6103 95.9037 58.5653 91.3209C59.8997 87.9958 61.1488 85.7889 63.3738 82.9409C64.6878 81.259 65.7914 79.6196 67.2597 77.9907C74.123 70.376 83.865 66.2717 94.0187 65.7814Z" fill="url(#paint0_linear_207_414)"/>
<path d="M76.4781 71.5327L76.5482 71.5598C76.5899 71.6283 79.2674 73.8747 79.6643 74.2436C85.424 79.599 90.7964 85.3034 96.2087 91.0028C92.219 94.6147 90.3019 97.4851 87.3233 101.82C81.9217 109.68 78.1522 117.713 75.1473 126.759C74.6148 128.362 74.136 130.238 73.6756 131.885C73.4232 133.002 73.1325 134.031 72.8867 135.192C62.5822 127.711 57.0492 115.187 57.2186 102.631C57.326 94.6724 59.4786 89.3601 64.2022 83.051C67.8977 78.115 70.9923 74.6159 76.4781 71.5327Z" fill="#576496"/>
<path d="M75.6292 93.7721C76.7266 93.8524 77.6598 95.2084 78.4127 96.0428C82.2134 95.3715 82.5184 96.1931 80.6736 99.5052C81.0406 100.413 82.0907 101.732 81.7761 102.746C81.3087 104.251 78.7059 102.595 77.8616 103.068C75.2843 106.063 74.5109 105.062 74.1377 101.675C73.289 101.125 71.7771 100.65 71.3399 99.7223C70.8024 98.5825 73.4952 97.6876 74.2551 97.3673C74.3106 96.0047 74.2526 94.3901 75.6292 93.7721Z" fill="#030005"/>
<path d="M75.4703 94.4309C76.5346 94.477 77.2137 96.3443 78.1367 96.709C78.8623 96.9959 80.0993 96.2485 80.8998 96.621C81.4245 97.3085 79.8226 98.7815 79.8479 99.4307C79.8766 100.17 80.9341 101.533 81.0162 102.387C80.4663 103.174 78.4965 101.788 77.647 102.279C77.1145 102.751 76.1328 104.215 75.4741 104.012C75.0864 103.489 74.9804 102.033 74.8462 101.287C73.9846 100.592 72.9496 100.284 72.2222 99.5644C72.1376 99.4808 72.1849 99.3939 72.2079 99.2543C72.6662 98.7057 74.2287 98.0698 74.9398 97.7363C75.061 96.7275 75.0732 95.3277 75.4703 94.4309Z" fill="white"/>
<path d="M63.8682 89.4565C65.0542 89.4669 65.5854 90.6482 66.1681 91.5436L66.3985 91.519C67.1323 91.4476 68.4163 91.2901 68.9657 91.8407C69.9581 92.8351 68.3986 94.2519 67.7832 94.8961C69.1666 97.7603 68.4928 98.7865 65.4128 97.5103C64.2016 97.2008 61.7544 101.622 61.9506 95.5801C59.0664 93.46 59.6538 93.0792 62.6164 91.9423C63.0882 91.0491 63.1615 90.0544 63.8682 89.4565Z" fill="#030005"/>
<path d="M64.0742 90.2947C64.5727 90.4386 65.4833 91.7811 65.8496 92.249C66.5529 92.248 68.11 91.9642 68.4867 92.5883C68.4381 93.1023 67.3724 94.2571 66.9633 94.8439C67.2223 95.4442 67.9533 96.7952 67.5332 97.3168C66.9363 97.4803 66.063 97.0134 65.4606 96.7617C64.3713 96.6704 63.3718 98.1284 62.8499 97.9325C62.4897 97.3871 62.6451 95.9 62.6769 95.2187C61.8513 94.6528 61.3468 94.2243 60.7412 93.4383C61.4999 93.0796 62.379 92.8555 63.1902 92.6194C63.5175 91.8616 63.6931 91.1066 64.0742 90.2947Z" fill="white"/>
<path d="M74.4323 81.1137C75.5408 81.0014 76.0306 81.5945 76.8841 82.2879C77.7856 82.0846 78.8378 81.3906 79.7735 81.7826C80.7018 82.1712 79.999 83.9482 79.7169 84.5831C80.1547 85.0825 81.2258 86.226 81.4 86.7804C81.8614 88.2494 78.8663 87.8648 78.366 87.994L78.2695 88.1785C77.9694 88.8045 77.7166 89.2998 77.3036 89.8609C75.8813 91.793 75.2619 88.7045 74.5853 87.8038C74.0316 87.0667 72.0609 87.1878 72.022 86.2761C71.9895 85.5188 73.4065 84.3252 73.95 83.8239C73.8205 82.7249 73.5856 81.9559 74.4323 81.1137Z" fill="#030005"/>
<path d="M74.6761 81.6924C75.5446 81.8608 75.9594 82.5238 76.7155 83.0902L76.7962 83.1496C77.5394 82.9446 78.7118 82.0434 79.3353 82.44C79.6953 83.2285 78.9064 84.0533 79.1068 84.9139C79.2662 85.5991 80.888 86.5047 80.3044 87.1296C79.4564 87.4035 78.2917 86.9083 77.7371 87.487C77.3274 88.3388 77.0222 89.1096 76.3711 89.7926C75.8193 89.0518 75.7432 88.2923 75.4031 87.4522C75.0027 86.4633 73.109 86.9618 72.7256 86.0591C72.8395 85.5789 74.2032 84.7485 74.6411 84.2699C74.6298 83.5029 74.4446 82.3686 74.6761 81.6924Z" fill="white"/>
<path d="M69.6538 118.727C71.0515 118.707 70.7533 120.384 70.7094 121.34C71.3897 121.818 72.7827 122.803 72.9061 123.648C72.7089 124.579 70.7264 124.683 70.3019 125.188C69.2534 126.436 69.0289 128.837 67.2447 126.169L66.5351 125.061C63.4331 125.091 63.0128 124.415 65.2008 122.078C64.3586 119.352 65.2296 118.865 67.6603 120.08C68.3951 119.46 68.7872 119.136 69.6538 118.727Z" fill="url(#paint1_linear_207_414)"/>
<path d="M69.7912 119.422C70.1285 119.611 69.955 121.213 69.9368 121.646C70.4082 122.142 71.8007 122.975 71.8259 123.548C71.4994 123.992 70.26 124.196 69.6736 124.337C69.3372 125.021 69.1811 125.746 68.7884 126.365C68.6472 126.451 68.6256 126.511 68.5047 126.463C68.0919 126.301 67.4994 125.194 67.2473 124.781C66.7092 123.816 64.7894 124.839 64.6118 123.973C64.837 123.42 65.6111 122.745 66.0541 122.303C65.85 121.73 65.3635 120.696 65.6718 120.152C66.1879 119.977 67.0619 120.553 67.6952 120.75L67.7884 120.778C68.508 120.282 69.003 119.855 69.7912 119.422Z" fill="white"/>
<path d="M86.4815 89.0554C88.0486 88.7933 89.5304 89.8536 89.7883 91.4214C90.046 92.989 88.9818 94.4681 87.4133 94.7217C85.851 94.9743 84.3788 93.9149 84.122 92.3532C83.8652 90.7914 84.9206 89.3165 86.4815 89.0554Z" fill="white"/>
<path d="M73.7741 109.28C75.2934 108.954 76.7953 109.9 77.1565 111.412C77.5178 112.923 76.606 114.446 75.1032 114.842C74.1 115.106 73.0323 114.807 72.3132 114.059C71.5941 113.311 71.3364 112.232 71.6396 111.24C71.943 110.248 72.7597 109.498 73.7741 109.28Z" fill="white"/>
<path d="M62.6097 108.314C63.6537 108.136 64.6502 108.82 64.8605 109.858C65.0707 110.896 64.4185 111.913 63.3878 112.156C62.6917 112.319 61.9616 112.091 61.4826 111.56C61.0038 111.029 60.8519 110.279 61.0866 109.604C61.3211 108.928 61.9049 108.434 62.6097 108.314Z" fill="white"/>
<path d="M73.6026 76.3517C74.5092 76.162 75.399 76.7402 75.5942 77.6458C75.7895 78.5512 75.2168 79.4446 74.3125 79.6453C73.4002 79.848 72.4974 79.2691 72.3004 78.3558C72.1035 77.4422 72.6878 76.5429 73.6026 76.3517Z" fill="white"/>
<path d="M67.9426 82.0756C68.6134 81.8344 69.3525 82.1839 69.5919 82.8554C69.8312 83.5268 69.4798 84.2651 68.8076 84.5026C68.1381 84.7392 67.4035 84.3892 67.1649 83.7204C66.9266 83.0515 67.2744 82.3159 67.9426 82.0756Z" fill="white"/>
<path d="M67.5787 101.034C68.2391 101.008 68.799 101.515 68.8373 102.175C68.8754 102.835 68.3783 103.404 67.7191 103.455C67.282 103.488 66.8606 103.283 66.6175 102.918C66.3744 102.553 66.3472 102.085 66.5465 101.695C66.7459 101.304 67.1405 101.051 67.5787 101.034Z" fill="white"/>
<path d="M79.2847 73.099C81.3719 73.3519 88.5838 76.3156 90.6588 77.326C104.029 83.8362 117.044 94.4513 125.924 106.401C128.336 109.646 130.803 113.158 132.162 116.961C131.355 119.572 129.931 122.215 128.501 124.532C127.658 125.817 126.752 127.026 125.8 128.231C123.295 123.601 120.607 119.608 117.569 115.348C110.199 105.014 101.586 95.4584 92.769 86.3392C88.3938 81.8137 83.9796 77.2917 79.2847 73.099Z" fill="white"/>
<path d="M96.6698 91.5599C97.1161 91.8521 100.757 95.9103 101.345 96.5699C107.903 103.928 114.229 111.518 119.7 119.73C121.662 122.675 123.675 125.789 125.24 128.964C123.315 131.186 121.608 132.787 119.294 134.559C118.915 134.191 118.617 133.851 118.269 133.455C108.837 122.105 98.8556 111.96 88.2954 101.709C90.9429 97.7712 93.0594 94.7811 96.6698 91.5599Z" fill="#FA6A57"/>
<path d="M87.8014 102.347C88.2354 102.552 90.6032 105.052 91.1497 105.581C99.6765 113.842 107.857 122.44 115.59 131.45C116.609 132.638 117.654 133.793 118.607 135.041C116.019 136.956 114.14 137.861 111.209 139.155C110.535 139.141 104.223 134.707 103.02 133.838C95.1813 128.174 87.5372 121.911 80.5195 115.25C82.0866 111.347 85.4651 105.929 87.8014 102.347Z" fill="white"/>
<path d="M78.6523 72.1952C80.3073 72.1713 81.976 72.1234 83.6294 72.2134C87.5761 72.4282 91.4889 73.2359 95.3099 74.2151C108.347 77.5564 120.065 84.5107 129.138 94.4493C130.768 96.2351 132.643 98.1186 133.863 100.215C135.428 102.906 133.873 111.435 133.079 114.494C132.959 114.944 132.779 115.433 132.628 115.878C128.722 107.485 121.337 98.8746 114.512 92.7581C105.15 84.3693 94.1803 77.0059 82.1625 73.104C81.0632 72.747 79.8392 72.5667 78.7246 72.2183L78.6523 72.1952Z" fill="#FA6A57"/>
<path d="M94.8981 69.0328C102.406 68.495 114.453 71.2723 120.54 75.6234C127.637 80.6972 132.683 90.8164 134.093 99.241C132.173 96.3863 128.799 92.9315 126.33 90.5195C120.71 85.3165 115.023 81.0795 107.95 77.9789C98.7463 73.9445 88.5811 70.6869 78.4229 71.7706C79.6996 71.3315 81.0336 71.0891 82.344 70.7803C86.5937 69.7787 90.5535 69.27 94.8981 69.0328Z" fill="white"/>
<path d="M80.1286 115.974C80.6025 116.245 82.1784 117.805 82.7224 118.295C91.3228 126.04 100.351 133.414 110.174 139.564C108.681 140.068 107.316 140.489 105.799 140.933C104.272 141.314 103.68 141.639 102.12 141.067C94.4512 138.256 87.1268 134.634 80.4887 129.848C78.9503 128.739 77.5274 127.532 76.0483 126.351C77.3451 122.704 78.4989 119.524 80.1286 115.974Z" fill="#FA6A57"/>
<path d="M75.8014 127.207C76.1521 127.384 78.3098 129.164 78.7707 129.512C80.1323 130.542 81.4375 131.413 82.8529 132.361C89.0986 136.543 95.0456 139.128 101.996 141.797C101.266 141.928 100.432 142.008 99.6887 142.096C90.3384 143.168 81.3442 140.715 73.5249 135.587C74.1909 132.693 74.9079 130.042 75.8014 127.207Z" fill="white"/>
<path d="M76.5986 71.8164C77.9956 70.2907 82.7988 68.6522 84.8797 68.0164C93.3643 65.424 103.001 66.1315 111.109 69.6786C112.685 70.3682 114.228 71.1935 115.752 72.0344L115.751 72.2603C104.105 67.1519 91.34 67.3628 79.3078 70.9092C78.3881 71.1803 77.5254 71.5582 76.5986 71.8164Z" fill="#FA6A57"/>
<path d="M115.752 72.0344C116.282 72.3153 116.649 72.5317 117.153 72.8566C116.548 72.6479 116.309 72.5658 115.75 72.2603L115.752 72.0344Z" fill="#C43446"/>
<path d="M24.6856 100.124C27.0792 99.8099 27.9924 102.895 29.0378 104.743C30.4164 104.91 33.3724 104.918 34.3578 105.785C36.1814 107.39 32.4785 110.455 31.407 111.554C31.63 112.788 32.0837 114.172 32.2454 115.351C32.9025 120.144 27.8829 116.97 25.8686 116.039C25.0059 116.53 24.1563 117.06 23.2964 117.555C18.036 120.578 19.4041 114.98 20.0079 112.138C19.0008 111.257 16.5099 109.486 16.0623 108.377C14.9737 105.681 20.1232 105.438 21.7998 105.074C22.0572 104.341 22.433 103.542 22.746 102.823C23.2265 101.719 23.524 100.649 24.6856 100.124Z" fill="#0F0328"/>
<path d="M25.1367 100.725C25.8917 100.85 26.1425 101.065 26.5482 101.737C27.2779 102.946 27.8545 104.238 28.6066 105.438C29.9557 105.598 35.6475 105.355 33.7264 107.975C32.9206 109.074 31.5898 110.191 30.7 111.316L30.6142 111.425C30.7232 111.901 30.8974 112.65 30.9967 113.099C31.529 115.506 32.7023 118.598 28.7144 116.567C28.0441 116.226 26.48 115.442 25.7124 115.287C23.6266 116.332 19.1953 120.26 20.2574 115.072C20.4623 114.071 20.5859 112.929 20.7121 111.906C18.585 109.554 13.1244 107.077 20.0364 106.141C20.6798 106.054 21.6183 105.875 22.2228 105.696C23.4 104.114 23.4752 101.535 25.1367 100.725Z" fill="#FA6A57"/>
<path d="M152.815 81.0626C154.077 81.0911 155.607 82.841 156.829 83.7299C158.015 83.5069 160.297 82.5371 161.29 82.9433C163.521 83.8567 161.477 86.7549 160.846 88.2456C161.45 89.3338 163.175 91.5049 163.059 92.6438C162.765 95.519 158.508 93.2082 157.273 94.3227C156.233 95.5737 153.974 98.8598 152.663 96.0859C152.268 95.2501 151.911 93.5167 151.662 92.5485C149.713 91.3708 144.216 90.3746 148.938 87.6687C149.583 87.2992 150.253 86.8035 150.837 86.3434C151.274 84.2937 150.43 81.4736 152.815 81.0626Z" fill="#0F0328"/>
<path d="M152.586 81.8232C153.968 81.8635 155.155 83.6638 156.648 84.4238C157.925 84.3786 160.914 83.0957 161.51 84.1891C161.617 84.8903 160.384 87.1519 160.056 88.1315L160.018 88.2466C160.375 89.2779 162.527 92.0658 162.298 92.6587C161.734 94.1227 158.319 92.5689 157.131 93.4157C156.518 93.9857 154.63 96.5715 153.94 96.3662C152.767 96.0171 152.905 92.982 152.225 92.1246C151.357 91.0294 148.583 90.8851 147.904 89.7056C147.967 88.7385 150.753 87.7244 151.619 86.493C151.804 85.1241 151.742 83.847 151.966 82.5185C152.028 82.1507 152.285 82.0018 152.586 81.8232Z" fill="#FDE6B1"/>
<path d="M103.118 42.8846C104.283 43.0114 104.145 44.1675 104.226 45.1155C104.756 45.4212 105.448 45.6249 105.827 46.1246C106.564 47.0979 104.917 47.7299 104.269 48.047C103.878 50.2151 103.465 50.9006 101.747 49.0351C101.398 48.5416 99.3455 49.5923 99.09 48.617C98.9541 48.0988 99.5781 46.9754 99.7957 46.5221C98.5087 44.1749 98.8672 43.5814 101.543 44.228C102.038 43.7178 102.507 43.2513 103.118 42.8846Z" fill="#0F0328"/>
<path d="M103.107 43.6306C103.197 43.6484 103.269 43.6923 103.357 43.7336C103.491 44.0163 103.493 44.6577 103.503 45.0065C103.527 45.8834 104.452 45.7903 105.22 46.4621C105.323 46.997 103.978 47.1492 103.657 47.5876C103.342 48.0202 103.645 49.1779 103.161 49.3549C102.757 49.0893 102.178 48.47 101.816 48.1072C101.166 48.1812 100.317 48.3503 99.6498 48.4553C99.9328 47.7421 100.293 47.2383 100.552 46.4698C100.203 45.8175 99.8553 45.1729 99.4951 44.5266C100.231 44.6795 100.923 44.812 101.664 44.9354C102.133 44.6329 102.698 44.0372 103.107 43.6306Z" fill="#FDE6B1"/>
<path d="M24.5448 130.127C25.4756 129.84 26.1186 130.673 26.7862 131.264C27.515 131.061 28.1207 130.782 28.8149 131C29.4055 131.615 28.8024 132.488 28.5723 133.208C29.9399 135.336 29.8977 135.927 27.194 135.677C26.6727 136.221 26.082 137.111 25.4272 137.288C24.6361 137.109 24.5067 135.837 24.3244 135.12L23.1846 134.607C23.1071 134.458 23.1286 134.498 23.0957 134.328L23.3664 134.092L22.831 133.813C22.6624 133.59 22.6209 133.571 22.4082 133.399C22.8121 132.947 23.5989 132.534 24.1444 132.215C24.178 131.394 24.131 130.841 24.5448 130.127Z" fill="#FDE6B1"/>
<path d="M24.5448 130.127C25.4756 129.84 26.1186 130.673 26.7862 131.264C27.515 131.061 28.1208 130.782 28.8149 131C29.4055 131.615 28.8024 132.488 28.5723 133.208C29.9399 135.336 29.8977 135.927 27.194 135.677C26.6727 136.221 26.082 137.111 25.4273 137.288C24.6361 137.109 24.5067 135.837 24.3244 135.12L23.1846 134.607C23.1071 134.458 23.1286 134.498 23.0957 134.328L23.3664 134.092C23.9017 134.292 24.319 134.493 24.8333 134.739C25.0079 135.43 25.1627 136.115 25.3192 136.809C26.0668 136.271 26.3522 135.95 26.7242 135.131C27.2055 135.148 28.7399 135.363 28.9051 134.916C28.7796 134.477 28.3837 134.052 28.1246 133.674C27.801 133.202 28.3723 132.203 28.5695 131.462C27.765 131.542 27.2823 131.649 26.4869 131.83C26.0095 131.291 25.5004 130.413 24.7721 130.79L24.8795 130.424L24.5448 130.127Z" fill="#030005"/>
<path d="M24.5448 130.127L24.8795 130.424L24.7721 130.79L24.7007 132.558C24.041 132.929 23.3467 133.262 22.831 133.813C22.6624 133.59 22.6209 133.571 22.4082 133.399C22.8121 132.947 23.5989 132.534 24.1444 132.215C24.178 131.394 24.131 130.841 24.5448 130.127Z" fill="url(#paint2_linear_207_414)"/>
<path d="M161.737 107.29C162.826 107.305 162.781 108.553 162.985 109.424C163.665 109.671 164.65 109.882 164.709 110.709C164.45 111.373 163.723 111.675 163.092 112.087C163.084 112.798 163.221 113.855 162.478 114.165C161.785 114.132 161.475 113.726 160.938 113.258C159.785 112.319 157.15 115.032 158.82 110.878C157.277 108.449 158.191 108.39 160.504 108.754C160.891 108.177 161.208 107.741 161.737 107.29Z" fill="#030005"/>
<path d="M161.952 107.899C162.305 108.182 162.429 109.29 162.554 109.823C163.012 109.989 163.853 110.182 164.019 110.662C163.827 111.202 163.173 111.4 162.619 111.672C162.505 112.466 162.489 112.998 162.462 113.802C161.992 113.481 161.183 112.764 160.726 112.378C160.119 112.457 159.5 112.801 158.923 112.618L158.847 112.436C158.915 111.948 159.254 111.31 159.472 110.842C159.162 110.414 158.482 109.664 158.69 109.145C159.135 108.954 160.145 109.18 160.65 109.259C161.094 108.697 161.353 108.292 161.952 107.899Z" fill="#FDE6B1"/>
<path d="M47.5135 112.206C48.4148 112.502 48.4454 113.486 48.6131 114.308C50.9967 114.999 51.0339 115.645 48.8178 116.74C48.7656 117.471 48.9005 118.362 48.1478 118.712C47.564 118.688 47.2856 118.321 46.8618 117.921C45.934 117.166 44.932 118.272 44.3152 117.536C44.1837 116.846 44.4975 116.3 44.7666 115.643C44.4428 115.115 43.8886 114.436 44.2034 113.823C44.7369 113.454 45.5093 113.603 46.1948 113.641C46.7116 112.998 46.7459 112.658 47.5135 112.206Z" fill="#030005"/>
<path d="M47.5244 112.905C48.0366 113.285 47.9984 114.055 48.0354 114.64C48.5256 114.873 49.3806 115.169 49.9069 115.365C49.3924 115.766 48.8457 116.038 48.2727 116.348C48.1969 116.944 48.1675 117.587 48.129 118.19C47.7434 117.902 47.2536 117.46 46.8794 117.138L46.6722 116.971C46.3364 116.927 45.1995 117.193 44.8027 117.271C44.9785 116.734 45.262 116.129 45.4928 115.602C45.2 115.193 44.5793 114.571 45.0116 114.162C45.4364 114.05 45.9947 114.156 46.4503 114.205C46.8226 113.781 47.1128 113.36 47.5244 112.905Z" fill="#FDE6B1"/>
<path d="M22.4079 133.399C22.6206 133.571 22.662 133.59 22.8306 133.813L23.366 134.092L23.0953 134.328C23.1282 134.498 23.1068 134.458 23.1843 134.607C22.8289 134.439 22.6206 134.389 22.4063 134.08C22.3052 133.739 22.3293 133.735 22.4079 133.399Z" fill="#0F0328"/>
</g>
<defs>
<linearGradient id="paint0_linear_207_414" x1="57.1439" y1="96.1396" x2="134.084" y2="112.697" gradientUnits="userSpaceOnUse">
<stop stop-color="#020013"/>
<stop offset="1" stop-color="#130634"/>
</linearGradient>
<linearGradient id="paint1_linear_207_414" x1="66.8643" y1="119.145" x2="69.1867" y2="126.954" gradientUnits="userSpaceOnUse">
<stop stop-color="#000002"/>
<stop offset="1" stop-color="#15001A"/>
</linearGradient>
<linearGradient id="paint2_linear_207_414" x1="25.0916" y1="131.588" x2="22.4255" y2="132.09" gradientUnits="userSpaceOnUse">
<stop/>
<stop offset="1" stop-color="#070016"/>
</linearGradient>
<clipPath id="clip0_207_414">
<rect width="180" height="180" fill="white"/>
</clipPath>
</defs>
</svg>
