<svg width="64" height="64" viewBox="0 0 64 64" fill="none" xmlns="http://www.w3.org/2000/svg">
<path d="M22.6668 38.6667C24.4349 38.6667 26.1306 37.9643 27.3809 36.714C28.6311 35.4638 29.3335 33.7681 29.3335 32C29.3335 28.32 28.0002 26.6667 26.6668 24C23.8082 18.2853 26.0695 13.1893 32.0002 8C33.3335 14.6667 37.3335 21.0667 42.6668 25.3333C48.0002 29.6 50.6668 34.6667 50.6668 40C50.6668 42.4513 50.184 44.8787 49.2459 47.1434C48.3078 49.4082 46.9328 51.466 45.1995 53.1993C43.4661 54.9327 41.4083 56.3077 39.1436 57.2458C36.8788 58.1838 34.4515 58.6667 32.0002 58.6667C29.5488 58.6667 27.1215 58.1838 24.8567 57.2458C22.592 56.3077 20.5342 54.9327 18.8008 53.1993C17.0675 51.466 15.6925 49.4082 14.7544 47.1434C13.8163 44.8787 13.3335 42.4513 13.3335 40C13.3335 36.9253 14.4882 33.8827 16.0002 32C16.0002 33.7681 16.7025 35.4638 17.9528 36.714C19.203 37.9643 20.8987 38.6667 22.6668 38.6667Z" stroke="#DC2626" stroke-linecap="round" stroke-linejoin="round"/>
</svg>
