<svg width="180" height="180" viewBox="0 0 180 180" fill="none" xmlns="http://www.w3.org/2000/svg">
<g clip-path="url(#clip0_207_339)">
<path d="M140.186 82.6455C140.754 82.0793 141.58 81.0975 142.412 81.1204C143.342 81.1459 143.517 82.6608 144.492 82.1802C145.451 81.0123 144.11 79.3944 147.145 79.1525C149.386 78.9738 148.61 81.3573 149.725 81.3515C150.518 80.9518 150.875 80.2364 151.795 79.7143C152.499 79.934 153.54 80.2976 153.934 80.9471C154.394 81.7049 153.245 83.1551 154.265 83.4611C155.24 83.7536 156.583 82.5718 157.379 84.2729C157.586 84.7134 158.177 85.697 158.1 86.1182C157.936 86.9621 156.223 87.3031 156.416 88.1569C156.562 88.8048 158.544 89.0894 158.514 89.6651C158.484 90.2324 158.488 92.2138 157.755 92.3342C156.965 92.4641 155.923 92.2496 155.353 92.6945C155.071 93.3679 155.809 94.2275 156.022 94.9271C155.435 95.6584 154.39 96.605 153.547 97.0068C152.699 96.4568 151.737 95.398 150.84 95.5459C149.947 96.1274 150.739 98.0944 148.829 98.4152C146.209 98.8553 146.907 96.9393 145.904 95.9649C145.158 95.7396 144.075 97.1487 143.118 97.5721C142.267 97.1926 141.72 96.8308 140.978 96.2638C141.272 95.706 141.964 94.4175 141.305 93.9885C140.388 93.8939 139.854 94.3681 139.165 93.9428C137.117 91.0933 139.978 90.4771 139.773 89.7539C139.2 89.2128 138.586 89.0588 137.949 88.515C138.01 88.2768 138.023 88.0606 138.051 87.8157C138.171 87.3631 138.29 86.5768 138.372 86.0999C139.902 84.6172 142.233 87.4214 140.186 82.6455Z" fill="#441B47"/>
<path d="M147.277 80.0036C147.804 79.9145 147.912 80.3193 148.088 80.7612C149.065 83.2202 150.319 82.2491 151.851 80.5958C152.378 80.818 152.738 81.0237 153.236 81.3034C152.663 84.4089 153.477 84.5421 156.344 84.1718C156.724 84.8573 156.911 85.3024 157.188 86.0313C156.645 86.3546 155.967 86.7749 155.665 87.3341C154.871 88.8011 156.655 89.5141 157.639 90.0177C157.6 90.5579 157.53 91.0903 157.465 91.6279C155.134 91.5588 153.3 92.0768 155.15 94.6318C154.678 95.172 154.241 95.5341 153.699 96.0055C152.949 95.4884 151.51 94.4265 150.6 94.6337C149.769 94.823 149.502 96.9373 149.112 97.6301C148.517 97.6456 148.218 97.6438 147.626 97.5846C147.371 97.018 147.231 96.4626 146.891 95.9257C145.736 94.1008 144.194 95.8939 143.038 96.7109C142.584 96.4304 142.447 96.3133 142.056 95.9698C142.44 94.6485 142.911 93.9916 141.724 93.0172C140.963 93.1062 140.461 93.2422 139.725 93.4484C139.451 92.83 139.337 92.4417 139.145 91.7884C139.618 91.2698 140.537 90.7709 140.739 90.0701C141.036 89.039 139.094 88.6865 138.759 87.8166C138.585 87.3643 138.774 87.0185 138.938 86.6009C142.384 86.5017 142.472 85.7179 141.137 82.8736C141.459 82.4252 141.677 82.2171 142.121 81.9024C142.741 82.325 143.373 82.9664 144.134 83.084C145.529 83.2995 145.762 81.2615 145.918 80.3181C146.426 80.1615 146.756 80.1005 147.277 80.0036Z" fill="#F385A1"/>
<path d="M147.073 84.4609C149.392 83.9276 151.706 85.3707 152.246 87.6881C152.787 90.0054 151.351 92.3234 149.035 92.8713C146.709 93.4215 144.379 91.9777 143.836 89.6501C143.293 87.3226 144.744 84.9967 147.073 84.4609Z" fill="#441B47"/>
<path d="M147.064 85.3724C148.876 84.8405 150.776 85.8721 151.317 87.6806C151.858 89.4892 150.836 91.395 149.03 91.9447C147.211 92.4982 145.289 91.4673 144.745 89.6462C144.2 87.8249 145.241 85.9082 147.064 85.3724Z" fill="#ADE2D7"/>
<path d="M47.707 165.378C72.385 161.386 97.5372 161.984 122.354 164.768C138.609 166.591 155.194 169.353 170.331 175.72L171.791 176.348C172.68 176.739 174.303 177.458 175.873 178.23C176.658 178.616 177.426 179.013 178.079 179.387C178.145 179.425 178.208 179.464 178.271 179.5H1.71387C8.22981 175.899 16.8826 172.97 23.8955 170.899C31.6925 168.646 39.709 166.672 47.707 165.378Z" fill="#ADD06E" stroke="black"/>
<path d="M134.214 111.532L134.383 111.696C134.104 112.644 134.467 114.815 134.582 115.897L133.275 116.831C133.618 115.463 133.958 113.005 134.214 111.532Z" fill="#ADE2D7"/>
<path d="M138.245 86.0752L138.372 86.1C138.29 86.5769 138.171 87.3631 138.051 87.8158C137.927 87.3039 138.121 86.5946 138.245 86.0752Z" fill="#B8A8B4"/>
<path d="M93.2852 56.2953C100.559 54.8072 107.695 55.2028 115.147 56.307H115.148C123.034 57.4643 130.922 59.9023 137.784 63.9486C137.891 64.0119 138.055 64.1844 138.254 64.5052C138.444 64.811 138.633 65.1952 138.812 65.6078C139.166 66.4242 139.457 67.2913 139.636 67.7904V67.7914C139.731 68.0915 139.741 68.4441 139.703 68.8441C139.683 69.051 139.653 69.2485 139.621 69.4476L139.522 70.0619C138.81 74.9532 137.909 79.7915 137.067 84.6752L137.066 84.6801L133.441 106.991L133.44 106.994C131.483 119.499 129.418 132.674 126.854 145.033V145.034L125.521 151.552L125.521 151.556C125.265 152.851 125.022 154.213 124.712 155.49C124.687 155.592 124.609 155.745 124.451 155.952C124.298 156.152 124.1 156.366 123.879 156.593C123.667 156.812 123.421 157.054 123.215 157.276C123.008 157.498 122.802 157.738 122.662 157.977C122.416 158.397 122.085 159.156 121.834 159.92C121.707 160.305 121.597 160.704 121.527 161.073C121.46 161.431 121.424 161.804 121.474 162.119V162.12C121.487 162.2 121.517 162.303 121.589 162.401C121.664 162.503 121.756 162.561 121.829 162.594C121.891 162.622 121.953 162.636 121.97 162.641C121.998 162.648 122.004 162.651 122.012 162.654L122.191 162.716L122.368 162.643C122.61 162.543 122.827 162.363 122.99 162.213C123.121 162.094 123.263 161.947 123.367 161.842L123.196 162.97C122.061 162.868 120.916 162.735 119.764 162.598C118.784 162.481 117.798 162.363 116.815 162.262L115.834 162.167C111.9 161.818 107.95 161.518 104.015 161.214C104.392 159.863 104.73 158.505 105.006 157.125L105.136 156.447C105.682 153.49 106.341 149.011 106.405 144.609C106.437 142.407 106.321 140.212 105.963 138.23C105.628 136.376 105.076 134.678 104.214 133.333L104.037 133.069C102.726 131.188 100.819 129.928 98.5342 129.549C95.7069 129.081 92.5359 130.037 90.2832 131.685C86.5859 134.39 84.0619 139.735 82.2979 145.339C80.5831 150.787 79.5534 156.594 78.8916 160.74C77.3068 160.764 75.7892 160.82 74.2168 160.892C74.4068 159.844 74.5562 158.841 74.8213 157.845C75.0325 157.052 75.1433 156.27 75.2354 155.508C75.3284 154.738 75.4016 154.004 75.5342 153.252L78.1182 138.968L88.1855 84.4271H88.1865C89.9014 75.0967 91.4373 65.5642 93.2852 56.2953Z" fill="#FEE367" stroke="black"/>
<path d="M123.584 158.811C124.124 158.146 124.73 157.437 125.192 156.724C124.665 158.296 124.156 160.11 123.888 161.747L123.682 161.515C123.641 161.247 123.673 161.311 123.87 161.013C123.895 160.777 123.938 160.593 123.863 160.371C123.477 160.715 123.772 161.032 123.085 161.419C123.527 160.275 123.502 160.067 123.584 158.811Z" fill="#FEE367"/>
<path d="M100.785 91.71C108.2 91.8051 112.493 96.9665 111.188 104.23C110.334 108.981 109.532 113.678 108.479 118.407C106.116 117.562 102.935 116.784 100.478 116.285C97.0801 115.773 93.7284 115.238 90.2771 115.202C89.6113 115.195 88.2293 115.384 87.7065 115.107C87.6012 114.531 88.5953 110.156 88.7726 109.305L90.0764 103.104C90.182 102.605 90.3167 102.043 90.4079 101.55C91.4649 95.8366 94.8742 92.0132 100.785 91.71Z" fill="#441B47"/>
<path d="M100.652 94.78C104.664 94.5625 108.635 97.6923 108.711 101.851C108.724 102.539 108.628 103.063 108.497 103.74C108.081 99.6531 107.112 96.9781 102.835 95.7714C102.234 97.9189 101.341 102.866 101.136 105.071C103.46 105.519 105.354 105.958 107.606 106.693L107.447 107.623C106.246 107.125 102.498 106.088 101.039 106.026C100.949 106.022 100.838 106.342 100.778 106.472C100.691 107.076 99.6533 112.624 99.5702 112.79C98.4304 113.03 98.9256 112.153 98.9467 111.652C98.9873 110.681 100.127 106.381 99.7758 105.788C98.8583 105.298 95.119 105.149 93.9202 105.124C93.6998 106.004 92.409 112.013 92.2264 112.32C91.9863 112.41 92.1049 112.409 91.8588 112.314L91.7783 112.115C92.1875 109.93 92.6574 107.804 93.1113 105.639C94.0879 100.979 94.8807 95.3625 100.652 94.78Z" fill="#FBBF2C"/>
<path d="M100.783 95.5666C100.987 95.5415 101.51 95.5536 101.739 95.5524C101.191 98.3051 100.481 102.168 100.141 104.939C98.6421 104.733 97.158 104.511 95.6494 104.392L93.9795 104.212C94.1764 102.539 95.189 99.5347 96.2829 98.1893C97.554 96.6261 98.8079 95.8324 100.783 95.5666Z" fill="#441B47"/>
<path d="M100.643 96.4373L100.669 96.4661C100.703 96.5673 99.6173 103.049 99.4793 104.007C98.4042 103.945 96.9335 103.698 95.7791 103.589C95.474 103.566 95.3391 103.546 95.0371 103.49C94.9515 102.945 96.1321 100.02 96.5608 99.377C97.6985 97.6716 98.6992 96.9099 100.643 96.4373Z" fill="#0EC7F8"/>
<path d="M100.054 92.5822C100.392 92.5293 100.861 92.5369 101.215 92.5427C106.871 92.6349 110.968 96.6283 110.595 102.382C110.494 103.937 110.088 105.562 109.805 107.121C109.33 109.735 108.75 112.345 108.32 114.974L106.816 114.491C107.472 111.4 108.282 108.376 108.754 105.244C109.076 103.101 109.6 101.206 108.708 99.1023C107.783 96.92 106.354 95.491 104.192 94.5529C103.761 94.4047 103.325 94.2922 102.883 94.1848C100.034 93.4919 97.0833 94.34 95.2841 96.7296C93.2662 99.4099 92.7863 102.836 92.1113 106.041C91.6687 108.142 91.2375 110.277 90.762 112.384L89.0356 112.403C89.5778 109.642 90.1404 106.891 90.7537 104.144C91.1698 102.418 91.4175 100.628 92.0419 98.9597C93.42 95.2773 96.1759 93.0396 100.054 92.5822Z" fill="#FBBF2C"/>
<path d="M101.564 106.922C103.239 107.206 105.732 107.827 107.274 108.431C106.825 110.345 106.447 112.203 106.031 114.118C105.818 114.121 104.015 113.713 103.707 113.644C102.611 113.4 101.56 113.209 100.452 113.016C100.764 110.881 101.185 109.022 101.564 106.922Z" fill="#0EC7F8"/>
<path d="M103.386 96.8745C107.294 98.6425 107.91 101.723 107.432 105.716L106.457 105.434C105.252 105.025 103.381 104.667 102.093 104.391C102.382 102.149 102.981 99.1329 103.386 96.8745Z" fill="#0EC7F8"/>
<path d="M94.5983 105.957C96.1471 106.042 97.3869 106.168 98.9192 106.421C98.7752 108.155 98.2234 110.542 97.9845 112.316C97.9446 112.612 97.9241 112.575 97.7409 112.692C96.1529 112.479 94.8192 112.411 93.2188 112.339C93.6436 110.097 94.0131 108.179 94.5983 105.957Z" fill="#0EC7F8"/>
<path d="M90.3079 113.162C94.7763 113.014 99.5602 113.539 103.909 114.575C105.354 114.919 106.791 115.251 108.245 115.56C108.1 116.145 107.968 116.763 107.832 117.353L106.775 117.012C101.217 115.129 94.4715 114.356 88.625 114.349L88.8713 113.178L90.3079 113.162Z" fill="#FBBF2C"/>
<path d="M106.688 60.2406C110.905 59.931 114.939 62.1995 116.483 66.2194C118.277 70.888 116.571 75.4302 115.84 80.1218C115.663 81.2631 115.16 84.6081 114.734 85.5645C114.551 85.671 114.233 85.5759 114.03 85.4954C111.618 84.5346 109.309 83.8939 106.765 83.3737C103.049 82.7161 99.3183 82.5147 95.5543 82.829C95.1166 82.8656 94.2661 83.0183 93.8662 82.903C93.8455 82.822 93.8323 82.7845 93.8228 82.7058C93.6959 81.6618 96.0391 69.9414 96.5954 68.2367C97.0247 66.9212 97.6248 65.5754 98.4963 64.4906C100.598 61.8746 103.392 60.5869 106.688 60.2406Z" fill="#441B47"/>
<path d="M106.677 61.1198C109.601 60.8085 112.988 62.1769 114.685 64.6417C117.226 68.3324 116.383 72.5844 115.621 76.6875L114.565 82.3429L112.817 81.7525C113.362 79.3509 113.883 76.8737 114.446 74.483C115.606 69.5511 114.872 65.2633 109.642 63.3622C107.136 62.6078 104.832 62.6943 102.604 64.1977C99.2743 66.4444 98.957 70.3228 98.288 73.958L97.2534 79.5661C96.5272 79.5992 95.9167 79.6371 95.1953 79.7166C95.8257 76.1278 96.3952 72.5229 97.3024 68.9936C98.4861 64.3893 102.009 61.5926 106.677 61.1198Z" fill="#FBBF2C"/>
<path d="M109.16 64.9153C110.689 65.2915 112.116 65.6442 113.053 67.053C114.461 69.1725 114.137 71.3309 113.721 73.6425L112.95 73.3691C111.18 72.7852 109.563 72.4104 107.735 72.101C108.214 69.7862 108.629 67.1549 109.16 64.9153Z" fill="#0EC7F8"/>
<path d="M106.33 63.7554C106.945 63.6875 108.15 63.6678 108.705 63.9324C108.648 63.9756 107.496 63.951 107.287 63.9704C102.557 64.4059 101.023 68.1056 100.124 72.1468C102.067 72.2751 104.034 72.4516 105.977 72.6091C106.145 71.9055 106.291 70.6467 106.402 69.8935L107.121 64.8851L108.26 64.8188C107.861 67.4306 107.174 70.0902 106.806 72.7274C107.889 72.9835 113.16 73.9236 113.532 74.709C113.491 75.0347 113.559 74.9061 113.355 75.1247C113.159 75.1664 110.537 74.3759 110.095 74.2595C108.963 73.9498 107.993 73.7375 106.842 73.5012C106.426 75.5455 106.072 77.6435 105.714 79.6991C105.685 79.8638 105.561 79.8967 105.435 79.9545C105.183 79.9235 105.023 79.9348 104.835 79.7696C104.817 79.1898 105.703 74.2196 105.842 73.2783C104.235 73.0015 101.754 73.0486 100.058 73.0486C99.5537 74.8864 99.3215 77.4951 98.6834 79.3161C98.612 79.5196 98.5278 79.521 98.3946 79.5609C98.3118 79.4852 98.2369 79.4628 98.2587 79.3238C98.7006 76.5132 99.2628 73.6684 99.7889 70.8678C100.478 67.2003 102.348 64.2302 106.33 63.7554Z" fill="#FBBF2C"/>
<path d="M107.513 74.4753C108.708 74.678 112.004 75.6098 113.189 76.0387C112.713 77.8662 112.385 79.5978 112.04 81.4477C111.729 81.46 109.435 80.8163 108.927 80.6998C108.111 80.5127 107.351 80.3429 106.476 80.2058C106.921 78.3833 107.165 76.333 107.513 74.4753Z" fill="#0EC7F8"/>
<path d="M97.1868 80.4589C103.532 80.2489 108.499 81.1708 114.476 83.2157L114.134 84.6355L112.472 83.9754C105.649 81.768 101.794 81.6114 94.6821 82.0292C94.8082 81.5509 94.8894 81.0462 94.9788 80.5582L97.1868 80.4589Z" fill="#FBBF2C"/>
<path d="M100.777 73.9076C102.222 73.9109 103.418 73.922 104.864 74.1025C104.699 74.9008 104.073 79.5117 103.859 79.7718C102.37 79.6521 101.097 79.5528 99.604 79.5312C99.8691 77.8309 100.407 75.6204 100.777 73.9076Z" fill="#0EC7F8"/>
<path d="M106.114 65.0255L106.221 65.0601C106.275 65.2428 105.364 70.9914 105.265 71.7251C104.141 71.609 103.048 71.4948 101.919 71.4203C101.553 71.3742 101.56 71.4313 101.303 71.2427C101.25 70.6161 101.628 69.7941 101.864 69.2098C102.729 67.066 103.975 65.9011 106.114 65.0255Z" fill="#0EC7F8"/>
<path d="M121.691 128.522C123.239 129.899 124.946 131.601 126.425 133.06L123.391 149.562C122.833 152.579 122.063 155.702 121.778 158.743L121.681 158.792C121.344 158.72 117.946 154.541 117.201 153.881L121.691 128.522Z" fill="#441B47"/>
<path d="M120.239 141.969C120.918 142.328 122.719 144.857 123.187 145.597C122.61 149.183 121.785 153.288 121.073 156.891C120.49 156.361 118.915 154.324 118.165 153.535C118.404 152.626 118.554 151.447 118.749 150.499C119.327 147.686 119.69 144.774 120.239 141.969Z" fill="#FEE367"/>
<path d="M122.321 130.227C123.437 131.154 124.366 132.42 125.437 133.334C125.246 134.114 125.051 135.479 124.897 136.318L123.718 142.695C123.558 142.567 122.718 141.48 122.464 141.204C121.84 140.528 121.365 140.196 120.637 139.647C121.307 136.903 121.733 133.103 122.321 130.227Z" fill="#FEE367"/>
<path d="M120.451 140.504C121.445 141.191 122.589 142.517 123.278 143.513C123.556 143.916 123.501 143.939 123.42 144.352C122.658 143.773 121.48 141.771 120.513 141.154C120.355 141.054 120.436 140.69 120.451 140.504Z" fill="#FEE367"/>
<path d="M127.758 96.7927C129.085 97.7871 131.129 100.219 132.352 101.475C131.134 108.98 129.648 116.445 128.452 123.954C128.322 124.77 128.182 125.592 128.009 126.399C126.426 124.81 124.965 123.045 123.413 121.505C124.506 114.323 125.991 107.108 127.164 99.9287C127.333 98.8922 127.535 97.817 127.758 96.7927Z" fill="#441B47"/>
<path d="M126.338 109.998C127.005 110.547 128.631 112.922 129.227 113.763C128.556 116.774 127.937 121.39 127.47 124.532C126.501 123.551 125.287 122.172 124.418 121.096C125.139 117.711 125.692 113.5 126.338 109.998Z" fill="#FEE367"/>
<path d="M128.318 98.5569C128.894 98.9803 130.768 101.157 131.347 101.815C131.297 102.287 131.214 102.821 131.124 103.289C130.645 105.786 130.195 108.28 129.774 110.786C129.594 110.628 128.767 109.532 128.57 109.278C127.968 108.5 127.499 107.962 126.809 107.255C127.35 104.391 127.833 101.435 128.318 98.5569Z" fill="#FEE367"/>
<path d="M126.638 108.432C127.199 108.847 128.918 111.138 129.361 111.812C129.58 112.146 129.525 112.152 129.45 112.468C128.845 112.03 127.214 109.637 126.561 109.034C126.448 108.929 126.581 108.626 126.638 108.432Z" fill="#FEE367"/>
<path d="M132.709 65.2496C133.378 65.4528 137.043 68.3661 137.731 68.9737C137.236 72.3962 136.564 75.8362 135.969 79.2482C135.164 83.8647 134.535 88.5299 133.723 93.1401L133.649 93.4082L133.541 93.4223C132.507 92.5231 130.131 89.8638 129.069 88.7491C129.155 87.7616 129.462 86.1506 129.625 85.1264L130.813 77.7813C131.493 73.6121 131.98 69.4466 132.709 65.2496Z" fill="#441B47"/>
<path d="M131.727 77.8239C132.323 78.3225 134.123 80.6302 134.719 81.3688C134.109 84.7916 133.594 88.2034 133.048 91.6357C132.754 91.4604 130.541 88.9288 130.048 88.43C130.58 84.9293 131.094 81.2985 131.727 77.8239Z" fill="#FEE367"/>
<path d="M133.37 66.8424C134.257 67.4177 135.997 68.6213 136.707 69.3181C136.293 72.3282 135.649 75.3414 135.216 78.3513L135.123 78.509C134.929 78.3935 132.611 75.3409 132.25 74.9115C132.504 72.2784 132.975 69.4663 133.37 66.8424Z" fill="#FEE367"/>
<path d="M132.078 76.0868C132.782 76.7955 133.86 78.3521 134.54 79.1626C134.946 79.6469 134.948 79.7437 134.866 80.2707C134.081 79.4486 132.712 77.7495 132.029 76.7597C131.893 76.563 132.014 76.297 132.078 76.0868Z" fill="#FEE367"/>
<path d="M145.514 109.25C146.376 109.247 146.924 109.278 147.287 109.355C147.635 109.429 147.741 109.53 147.801 109.62C147.891 109.756 147.949 109.97 148.032 110.421C148.109 110.844 148.202 111.413 148.402 112.117C148.456 112.306 148.578 112.49 148.688 112.634C148.808 112.79 148.954 112.95 149.108 113.097C149.262 113.244 149.431 113.385 149.596 113.501C149.753 113.611 149.941 113.722 150.13 113.776C150.827 113.972 151.417 113.814 151.915 113.518C152.383 113.239 152.795 112.819 153.144 112.483C153.519 112.122 153.833 111.843 154.164 111.696C154.458 111.565 154.783 111.531 155.222 111.731C156.211 112.183 156.856 112.806 157.277 113.771C157.114 114.158 156.898 114.501 156.652 114.892C156.374 115.333 156.064 115.829 155.834 116.457L155.751 116.684L155.878 116.89C156.132 117.302 156.514 117.801 156.925 118.26C157.334 118.716 157.797 119.162 158.216 119.448C158.762 119.82 159.382 119.648 159.793 119.491C160.012 119.407 160.236 119.301 160.418 119.219C160.614 119.131 160.768 119.069 160.894 119.037L160.912 119.033L160.929 119.027C161.125 118.962 161.287 118.988 161.45 119.079C161.63 119.181 161.819 119.372 162.005 119.644C162.373 120.179 162.639 120.891 162.808 121.38C162.807 121.384 162.806 121.389 162.804 121.395C162.788 121.441 162.75 121.515 162.673 121.619C162.518 121.827 162.27 122.071 161.968 122.341C161.82 122.474 161.665 122.607 161.508 122.742C161.353 122.875 161.196 123.01 161.048 123.14C160.765 123.391 160.476 123.664 160.301 123.917L160.298 123.921L160.236 124.013L160.157 124.131L160.151 124.274C160.11 125.342 160.146 126.123 160.288 126.697C160.436 127.297 160.711 127.707 161.154 127.968C161.549 128.2 162.04 128.285 162.507 128.366C162.958 128.444 163.459 128.53 164.042 128.705C164.625 129.726 164.578 130.909 163.989 132.007C163.927 132.122 163.802 132.238 163.571 132.346C163.339 132.454 163.041 132.534 162.696 132.598C162.352 132.662 161.989 132.705 161.628 132.748C161.279 132.791 160.918 132.836 160.619 132.906H160.616L160.473 132.94L160.252 132.993L160.146 133.194C159.917 133.628 159.692 134.074 159.468 134.518C159.244 134.963 159.02 135.406 158.792 135.84L158.662 136.089L158.806 136.33C159.21 137.004 159.734 137.481 160.211 137.904C160.693 138.33 161.12 138.695 161.461 139.181C161.512 139.27 161.527 139.326 161.532 139.359C161.536 139.389 161.534 139.417 161.522 139.453C161.508 139.495 161.482 139.549 161.431 139.63C161.371 139.726 161.327 139.788 161.241 139.92H161.24C160.79 140.613 160.37 141.001 159.981 141.208C159.601 141.411 159.211 141.463 158.778 141.413C158.331 141.362 157.848 141.203 157.292 140.988C156.756 140.78 156.13 140.51 155.49 140.289L155.354 140.243L155.213 140.275C154.27 140.496 153.627 140.789 153.245 141.218C152.833 141.68 152.8 142.207 152.841 142.666C152.928 143.619 153.249 144.338 152.716 145.293C152.613 145.479 152.422 145.623 152.129 145.741C151.833 145.859 151.498 145.926 151.15 145.997C150.915 146.043 150.671 146.096 150.42 146.132C150.167 146.169 149.957 146.181 149.806 146.16C149.197 146.073 148.94 145.653 148.551 144.963C148.194 144.33 147.706 143.438 146.507 143.33C145.931 143.279 145.366 143.341 144.875 143.596C144.373 143.857 143.997 144.294 143.765 144.898C143.383 145.894 143.134 146.249 142.862 146.401C142.731 146.474 142.555 146.52 142.276 146.528C142.073 146.533 141.832 146.517 141.535 146.485C141.495 146.207 141.431 145.962 141.33 145.746C141.173 145.415 140.945 145.181 140.667 145.013C140.402 144.854 140.101 144.76 139.808 144.685C139.66 144.647 139.501 144.611 139.342 144.575C139.294 144.563 139.246 144.551 139.197 144.539C139.17 143.945 139.126 143.066 138.925 142.349C138.802 141.907 138.596 141.432 138.218 141.127C137.797 140.787 137.261 140.733 136.674 140.953C136.01 141.204 135.309 141.505 134.615 141.8C134.031 142.048 133.448 142.292 132.876 142.508C132.199 141.629 131.919 141.002 131.54 139.893C131.838 139.57 132.174 139.243 132.528 138.905C132.953 138.497 133.405 138.071 133.812 137.63L134.015 137.411L133.917 137.128C133.763 136.68 133.549 136.265 133.358 135.889C132.649 134.491 131.957 133.085 131.292 131.667C131.359 131.219 131.438 130.771 131.524 130.318C132.282 126.32 132.961 122.312 133.564 118.287C134.361 117.721 134.971 117.391 135.662 116.42L135.737 116.314L135.751 116.184C135.894 114.858 135.654 113.596 135.476 112.383C135.664 112.233 135.914 112.049 136.177 111.871C136.556 111.616 136.91 111.408 137.111 111.328C137.56 111.148 137.799 111.175 137.948 111.234C138.119 111.302 138.282 111.455 138.506 111.748C138.924 112.294 139.48 113.266 140.667 113.764L140.671 113.766L140.787 113.813L140.935 113.874L141.092 113.836C142.097 113.597 142.914 113.364 143.498 112.84C144.106 112.294 144.389 111.507 144.555 110.372C144.618 109.946 144.717 109.706 144.844 109.558C144.957 109.427 145.142 109.312 145.514 109.25Z" fill="#0EC7F8" stroke="black"/>
<path d="M144.145 120.434C148.485 119.701 152.601 122.617 153.348 126.956C154.096 131.294 151.192 135.42 146.856 136.18C142.501 136.945 138.353 134.025 137.603 129.668C136.852 125.31 139.784 121.171 144.145 120.434Z" fill="#441B47"/>
<path d="M144.398 121.269C148.259 120.676 151.877 123.308 152.502 127.164C153.127 131.02 150.526 134.66 146.675 135.318C142.778 135.983 139.085 133.345 138.453 129.442C137.82 125.539 140.49 121.869 144.398 121.269Z" fill="#0EC7F8"/>
<path d="M144.872 124.218C147.036 123.868 149.072 125.34 149.418 127.504C149.764 129.667 148.289 131.701 146.124 132.044C143.965 132.385 141.937 130.914 141.592 128.755C141.247 126.597 142.715 124.566 144.872 124.218Z" fill="#441B47"/>
<path d="M145.14 125.013C146.843 124.815 148.388 126.022 148.609 127.722C148.83 129.422 147.644 130.984 145.947 131.228C144.829 131.388 143.711 130.934 143.021 130.04C142.331 129.146 142.176 127.95 142.614 126.909C143.053 125.868 144.018 125.144 145.14 125.013Z" fill="#ADE2D7"/>
<path d="M39.4731 119.959C40.5287 120.102 41.4116 120.85 42.1226 121.914C42.8503 123.003 43.3417 124.342 43.6099 125.423L43.7212 125.869L44.1753 125.796C46.33 125.446 48.1891 125.415 50.353 125.76L50.7495 125.824L50.897 125.451C51.6706 123.496 52.6541 122 54.4907 121.07C55.0814 120.771 55.5443 120.72 55.8999 120.79C56.2543 120.86 56.5628 121.063 56.8267 121.383C57.3707 122.042 57.6667 123.139 57.6675 124.18C57.6683 125.158 57.3877 125.868 56.981 126.873L56.8081 127.302L57.2212 127.508C58.6056 128.198 59.4623 128.634 60.5005 129.66L60.8618 130.017L61.2134 129.651C62.8739 127.92 64.7576 127.042 67.1753 127.107C68.0108 127.13 68.5996 127.779 68.48 128.55C68.1647 130.581 66.8059 132.496 65.1714 133.81L64.8315 134.084L65.0552 134.457C65.7339 135.589 66.1624 136.823 66.3589 138.133L66.4214 138.549L66.8423 138.558C68.115 138.586 69.7954 138.734 71.3335 139.164C72.8887 139.598 74.2005 140.291 74.8647 141.337C75.0986 141.705 75.1696 142.011 75.1548 142.271C75.1397 142.535 75.0332 142.804 74.8247 143.092C74.3924 143.688 73.5984 144.258 72.6353 144.861C71.7089 145.441 70.6264 146.052 69.7798 146.691C68.9466 147.32 68.1816 148.089 68.0571 149.06C67.947 149.921 68.1939 150.613 68.6421 151.182C69.073 151.73 69.6841 152.158 70.2915 152.537C70.9275 152.934 71.5401 153.267 72.1206 153.675C72.677 154.065 73.1319 154.48 73.4282 154.976C73.3361 155.935 73.0855 157.045 72.7769 157.971C72.3293 158.231 71.7664 158.42 71.1216 158.583C70.7674 158.672 70.4003 158.751 70.0239 158.832C69.6507 158.912 69.2674 158.994 68.896 159.087C67.5721 159.417 66.1308 159.937 65.6499 161.344C63.879 161.552 61.7326 161.68 59.7974 161.834C60.2659 161.251 60.7357 160.662 61.189 159.957C63.6474 156.131 65.2001 151.465 65.1782 146.884C65.1549 142.083 63.2268 137.165 59.7241 133.817C55.6908 129.962 51.0947 128.736 45.7397 128.797L45.728 128.798H45.7153C33.2093 129.556 22.9901 139.617 24.6597 152.675C25.3879 158.37 28.0301 162.99 32.3218 166.632C30.6816 166.98 28.4902 167.606 27.0835 168.024C26.5405 167.087 26.0846 166.239 25.6685 165.226L25.5161 164.857L25.1226 164.924C23.1404 165.259 21.615 165.239 20.5474 164.985C19.4721 164.73 18.9501 164.266 18.7778 163.787C18.6044 163.304 18.7136 162.607 19.356 161.723C19.9926 160.847 21.1036 159.864 22.7417 158.879L23.105 158.661L22.9497 158.267C22.5662 157.293 22.4492 156.954 22.2749 155.938L22.2036 155.525L21.7847 155.523L21.3159 155.508C20.1475 155.439 18.4977 155.143 17.2798 154.519C16.5845 154.163 16.0939 153.732 15.8696 153.241C15.6584 152.778 15.6426 152.168 16.0952 151.332C16.5274 150.534 17.354 149.879 18.3618 149.358C19.3617 148.842 20.4875 148.485 21.4438 148.257L21.8696 148.155L21.8247 147.719C21.7023 146.515 21.9553 145.536 22.2798 144.284L22.3813 143.89L22.0171 143.711C19.9519 142.689 18.0836 141.078 17.522 138.93C17.9111 137.689 19.0839 137.079 20.644 136.865C22.2372 136.647 24.0538 136.877 25.2817 137.137L25.6431 137.215L25.8228 136.891C26.4449 135.771 26.7933 135.321 27.6997 134.418L27.9839 134.135L27.77 133.797C27.507 133.379 27.2418 133.008 26.9946 132.665C26.7448 132.317 26.5169 132.002 26.312 131.676C25.9103 131.036 25.6033 130.365 25.4731 129.431C25.3787 128.754 25.4723 128.293 25.6421 127.981C25.809 127.675 26.0778 127.46 26.4409 127.326C27.1971 127.046 28.2998 127.142 29.3286 127.499C30.6227 127.947 31.5253 128.541 32.5825 129.446L32.8638 129.687L33.1763 129.488C34.7847 128.463 35.58 127.973 37.3999 127.364L37.7974 127.231L37.7358 126.817C37.5753 125.729 37.4398 124.123 37.6694 122.712C37.8962 121.318 38.4425 120.296 39.4731 119.959Z" fill="#A487B0" stroke="black"/>
<path d="M104.061 42.261C104.444 42.268 104.811 42.2857 105.122 42.3206C105.295 42.3401 105.436 42.3642 105.544 42.3889C105.545 42.3914 105.545 42.3941 105.545 42.3967C105.553 42.5408 105.548 42.7365 105.532 42.9778C105.499 43.4588 105.421 44.071 105.329 44.7112C105.148 45.9595 104.898 47.3595 104.848 47.9055L104.803 48.3987L105.295 48.4485C106.236 48.5439 107.188 48.5926 108.125 48.6428C109.067 48.6933 109.997 48.745 110.916 48.845L111.404 48.8987L111.466 48.4114C111.672 46.7898 112.117 44.5971 112.437 42.8352C114.348 42.7643 116.337 42.987 118.231 43.3752C117.911 44.9916 117.377 47.3414 117.224 48.7717L117.178 49.2004L117.595 49.3088C118.449 49.5306 119.341 49.7142 120.21 49.8997C121.086 50.0863 121.942 50.2754 122.752 50.51L123.224 50.6467L123.369 50.178C123.873 48.5455 124.243 46.386 124.564 44.6428C126.351 44.8372 127.909 45.1831 129.609 45.7581C129.354 46.6012 129.078 47.425 128.801 48.2668C128.476 49.2556 128.155 50.2649 127.891 51.3284L127.792 51.7268L128.165 51.9016C128.556 52.0852 128.955 52.2236 129.346 52.345C130.962 52.8464 132.505 53.4458 134.086 54.094L134.619 54.3118L134.761 53.7551L136.117 48.4368C137.558 48.8065 138.882 49.382 140.181 50.1321C139.585 51.8284 139.036 53.7219 138.519 55.3967L138.393 55.8069L138.779 55.9944C139.365 56.2784 139.935 56.612 140.521 56.9612C141.102 57.3072 141.703 57.6705 142.327 57.9973L142.849 58.2717L143.034 57.7112C143.465 56.3997 143.999 55.01 144.518 53.6907C145.704 54.3673 146.839 55.1064 147.987 55.8752L146.306 63.4924L146.305 63.4944C146.068 64.5899 145.776 66.098 145.452 67.2629C139.333 61.8798 131.221 57.86 123.354 56.0286C118.41 54.8778 111.678 53.6738 105.022 53.4485C98.8046 53.2381 92.5771 53.8775 87.9409 56.2786C88.2237 54.662 88.5737 53.0523 88.8599 51.3889C89.2217 49.2853 89.4865 47.1116 89.8979 45.0735C90.5912 44.5941 91.2071 44.2964 91.8423 44.1233C92.3931 43.9732 92.9769 43.9124 93.6636 43.9211C93.4892 45.5865 93.1465 47.5603 92.938 49.2551L92.8521 49.9514L93.5386 49.8049C95.4179 49.4038 96.9205 49.0624 98.7817 48.8674L99.1753 48.8264L99.2261 48.4338C99.4757 46.4993 99.7571 44.327 100.045 42.3948C100.69 42.3407 101.387 42.3175 102.048 42.2864L102.049 42.2874C102.506 42.2764 103.294 42.2469 104.061 42.261Z" fill="#FBBF2C" stroke="black"/>
<path d="M45.2998 130.7C48.2389 130.35 51.5646 131.136 54.3506 132.371C54.1385 132.587 53.9319 132.807 53.7275 133.028C50.7579 136.25 47.6887 139.442 44.748 142.716C43.2582 142.847 41.748 143.377 40.6768 144.332C39.5877 145.303 38.9792 146.698 39.2998 148.45C37.0771 150.662 34.1881 154.095 32.0986 156.418L32.0898 156.429C31.3034 157.351 29.9626 158.751 28.958 159.765C27.5695 157.315 26.7196 154.587 26.4619 151.781C25.4205 140.435 34.1965 131.626 45.2822 130.702L45.2998 130.7Z" fill="#ADE2D7" stroke="black"/>
<path d="M96.4233 135.604C96.5826 135.596 96.7458 135.606 96.9106 135.634L97.0854 135.669C97.8375 135.847 98.3913 136.327 98.813 137.04C99.558 138.3 100.006 140.061 100.219 142.129C100.431 144.189 100.407 146.511 100.237 148.863C99.9107 153.364 99.0508 157.927 98.3423 160.878L88.4937 160.694H88.4858L84.4429 160.681C84.7408 158.947 85.0912 157.096 85.4917 155.426C86.2519 152.257 87.1917 147.622 88.8784 143.585C90.5701 139.537 92.9329 136.289 96.4233 135.604Z" fill="#FD6B2A" stroke="black"/>
<path d="M95.8385 148.769C97.2839 148.616 98.5833 149.654 98.7524 151.098C98.9215 152.542 97.897 153.853 96.4553 154.037C95.5087 154.159 94.5697 153.762 93.9968 152.999C93.4239 152.235 93.3053 151.223 93.6864 150.348C94.0675 149.473 94.8892 148.87 95.8385 148.769Z" fill="#33182F"/>
<path d="M95.7238 149.608C98.1062 149.258 98.6518 152.24 96.4442 153.222C94.3272 153.498 93.4316 150.798 95.7238 149.608Z" fill="#B8A8B4"/>
<path d="M112.875 34.9884C116.329 34.6905 121.275 35.3386 125.679 37.0206C130.101 38.7096 133.838 41.3854 135.085 45.0411C135.15 45.2292 135.233 45.5706 135.272 45.9083C135.291 46.0762 135.298 46.2299 135.29 46.3546C135.287 46.3931 135.28 46.4259 135.275 46.4542C135.234 46.4765 135.193 46.4986 135.152 46.5226H135.151C134.948 46.6421 134.803 46.8422 134.701 47.0138C134.59 47.1993 134.489 47.4234 134.395 47.6622C134.207 48.1411 134.031 48.7358 133.875 49.3322C133.717 49.9313 133.575 50.5469 133.456 51.0714C133.4 51.3144 133.35 51.5343 133.306 51.7247C132.185 51.2939 131.217 50.9375 130.055 50.5763C130.273 49.9717 130.614 49.0314 130.917 48.1163C131.122 47.5001 131.315 46.8847 131.447 46.381C131.512 46.1299 131.565 45.8964 131.596 45.7003C131.612 45.6025 131.624 45.506 131.627 45.4161C131.631 45.3332 131.629 45.2233 131.6 45.1144L131.577 45.0255L131.523 44.9513L131.391 44.7911C131.248 44.6383 131.071 44.5048 130.886 44.3878C130.634 44.2285 130.335 44.0813 130.012 43.9464C129.366 43.6765 128.584 43.4403 127.793 43.2521C127.002 43.0635 126.188 42.9195 125.473 42.838C124.859 42.768 124.285 42.7397 123.854 42.7814L123.679 42.8038C123.364 42.8545 123.175 43.0849 123.076 43.2413C122.969 43.4107 122.893 43.6091 122.839 43.7843C122.786 43.9588 122.744 44.1445 122.711 44.3029L122.644 44.6544L121.882 48.3488L119.324 47.7413C119.462 47.1359 119.659 46.2413 119.818 45.3575C119.923 44.7736 120.013 44.1854 120.061 43.6857C120.085 43.4361 120.099 43.2006 120.097 42.9943C120.096 42.7973 120.08 42.589 120.025 42.4132L119.994 42.3136L119.925 42.2345C119.742 42.0233 119.47 41.8703 119.2 41.754C118.917 41.6324 118.579 41.5267 118.212 41.4357C117.479 41.2533 116.586 41.118 115.695 41.0343C114.803 40.9505 113.897 40.9176 113.133 40.9454C112.752 40.9593 112.398 40.9882 112.096 41.0363C111.878 41.071 111.662 41.1189 111.476 41.1896L111.3 41.2687C111.158 41.3441 111.071 41.4621 111.025 41.5323C110.971 41.614 110.926 41.7068 110.887 41.797C110.809 41.9784 110.735 42.2067 110.666 42.4552C110.525 42.9557 110.384 43.5977 110.255 44.2443C110.127 44.8929 110.009 45.5575 109.913 46.1075C109.861 46.4002 109.814 46.6564 109.778 46.8615C108.885 46.8209 107.809 46.7412 106.9 46.6613C107.129 45.4658 107.313 44.2609 107.5 43.0919C107.599 42.4757 107.576 41.956 107.396 41.5353C107.207 41.0936 106.873 40.8243 106.491 40.6671C106.127 40.5177 105.709 40.465 105.314 40.4386C105.113 40.4251 104.904 40.4179 104.7 40.4113C104.493 40.4045 104.29 40.3991 104.087 40.3878C103.215 40.3393 102.322 40.3508 101.462 40.3615C102.249 38.5806 103.899 37.3444 105.911 36.5001C108.155 35.5583 110.766 35.1401 112.868 34.9884H112.875Z" fill="#FD6B2A" stroke="black"/>
<path d="M58.2158 135.002C60.3984 137.046 62.2617 140.45 62.8457 143.261C64.0519 149.066 62.5667 154.082 59.5889 158.978C58.6419 158.09 57.781 157.253 56.8447 156.301L56.8389 156.296L48.7021 148.248C48.9632 147.668 49.128 147.131 49.1396 146.573C49.1515 146.002 49.0025 145.455 48.7139 144.861C49.1325 144.383 49.5896 143.902 50.0381 143.45C52.8225 140.642 55.4186 137.729 58.2158 135.002Z" fill="#ADE2D7" stroke="black"/>
<path d="M45.2607 151.388C45.4523 151.56 45.7149 151.807 46.0283 152.11C46.6542 152.714 47.4697 153.525 48.3018 154.36C49.9655 156.03 51.6859 157.791 52.0625 158.18C52.6602 158.798 53.5732 159.678 54.4492 160.547C55.0514 161.145 55.6355 161.74 56.1104 162.258C51.1073 162.978 46.4447 163.694 41.4219 164.631L41.415 164.632C39.1271 165.093 36.9284 165.588 34.6621 166.105C33.4777 165.239 32.7293 164.536 31.7422 163.527C32.0491 163.189 32.3767 162.851 32.6973 162.51C36.1469 158.839 39.5103 155.135 43.0312 151.562C43.8279 151.557 44.3691 151.456 45.1191 151.266C45.1586 151.3 45.2066 151.339 45.2607 151.388Z" fill="#ADE2D7" stroke="black"/>
<path d="M96.1479 131.394C97.8828 131.127 99.2464 131.411 100.325 132.035C101.41 132.664 102.248 133.662 102.881 134.892C104.155 137.365 104.551 140.678 104.49 143.399C104.347 149.793 103.673 155.035 102.049 161.109C101.454 161.065 100.866 161.027 100.275 160.994C101.112 157.57 101.927 153.228 102.179 148.894C102.446 144.32 102.094 139.69 100.443 136.156C99.6853 134.535 98.3764 133.838 96.9497 133.769C95.56 133.701 94.0794 134.224 92.8618 134.966L92.8511 134.973L92.8394 134.979C89.4447 137.307 87.1912 142.1 85.6235 147.096C84.105 151.935 83.1927 157.095 82.5464 160.693L80.7788 160.709C81.039 159.105 81.4761 157.047 81.8032 155.532C83.2655 148.761 84.7169 141.509 88.7515 135.912C89.7415 134.539 90.7786 133.538 91.9624 132.817C93.1462 132.097 94.501 131.643 96.146 131.394H96.1479Z" fill="#FBBF2C" stroke="black"/>
<path d="M133.609 152.317C137.447 151.974 140.45 154.037 141.713 156.77C142.946 159.439 142.533 162.769 139.53 165.197C138.542 165.046 137.44 164.819 136.437 164.631L136.427 164.629L136.416 164.627L134.444 164.334C132.496 164.042 130.427 163.741 128.557 163.59C127.545 162.226 126.912 160.845 126.776 159.469C126.637 158.048 127.021 156.583 128.157 155.085C129.468 153.358 131.399 152.588 133.609 152.317Z" fill="#FEE367" stroke="black"/>
<path d="M133.918 155.009C136.357 154.64 138.631 156.323 138.992 158.762C139.353 161.202 137.663 163.471 135.222 163.823C132.792 164.174 130.537 162.494 130.178 160.066C129.819 157.638 131.491 155.377 133.918 155.009Z" fill="#441B47"/>
<path d="M133.824 155.908C135.777 155.478 137.705 156.723 138.117 158.679C138.528 160.636 137.265 162.552 135.305 162.946C133.371 163.334 131.484 162.091 131.078 160.16C130.672 158.229 131.898 156.332 133.824 155.908Z" fill="#FF972E"/>
<path d="M133.514 160.694C131.888 159.64 133.251 157.001 134.556 158.119C134.88 158.177 134.735 158.199 135.012 158.098C137.628 157.754 135.895 162.668 133.514 160.694Z" fill="#A487B0"/>
<path d="M135.013 158.098C137.629 157.754 135.895 162.668 133.514 160.694C133.748 160.706 133.917 160.775 134.182 160.782L134.272 160.62C135.924 160.537 136.129 159.181 135.013 158.098Z" fill="#441B47"/>
<path d="M133.514 160.694C131.888 159.64 133.251 157.001 134.556 158.119C133.344 158.845 132.948 159.614 134.272 160.62L134.181 160.782C133.916 160.775 133.748 160.706 133.514 160.694Z" fill="#441B47"/>
<path d="M129.977 16.3531C130.795 16.2487 131.723 16.2969 132.59 16.3844C133.205 16.4465 133.933 16.553 134.571 16.7838C135.217 17.0171 135.692 17.3481 135.917 17.8053C136.021 18.018 136.049 18.2651 136.112 18.6334C136.188 19.0734 136.254 19.694 136.702 20.2067C137.01 20.5582 137.455 20.8434 137.962 21.0807C138.475 21.3207 139.085 21.528 139.752 21.7086C141.086 22.0698 142.699 22.337 144.332 22.5397C146.407 22.7972 148.545 22.9508 150.228 23.0582C149.871 23.197 149.527 23.3307 149.208 23.4449C147.517 24.0505 145.751 24.6651 144.07 25.3317L143.202 25.6764L143.971 26.2076C145.073 26.9693 146.417 27.7107 147.63 28.4117C146.147 28.3348 144.369 28.2036 142.618 27.9606C141.316 27.7799 140.038 27.5392 138.91 27.2184C137.776 26.8957 136.826 26.5005 136.16 26.026C136.118 25.9959 136.05 25.9123 135.969 25.6715C135.885 25.4209 135.834 25.165 135.73 24.7916C135.54 24.1051 135.221 23.2405 134.326 22.6627C132.893 21.7374 130.855 21.5278 128.895 21.5817C127.219 21.6277 125.522 21.8712 124.165 22.0895C124.223 21.7616 124.274 21.4391 124.325 21.1207C124.402 20.6397 124.484 20.1636 124.594 19.6666C125.284 19.2865 125.766 18.9256 126.125 18.443C126.465 17.9864 126.668 17.452 126.876 16.7848C127.94 16.5508 128.816 16.4447 129.953 16.3551L129.977 16.3531Z" fill="#FEE367" stroke="black"/>
<path d="M143.897 161.865C143.894 162.371 143.759 163.156 143.686 163.786L143.667 163.943L143.741 164.081C143.978 164.522 144.545 165.313 144.895 165.808L144.79 166.133C143.865 165.938 142.824 165.752 141.858 165.61C142.424 164.968 142.87 164.362 143.218 163.696C143.511 163.133 143.729 162.538 143.897 161.86V161.865ZM136.833 145.88C137.809 146.006 138.431 146.134 138.833 146.285C139.254 146.443 139.369 146.598 139.43 146.749C139.469 146.847 139.497 146.975 139.518 147.161C139.539 147.352 139.549 147.562 139.567 147.836C139.604 148.373 139.669 149.055 139.914 149.905L139.959 150.061L140.088 150.161C140.966 150.842 141.809 151.006 142.659 150.93C143.348 150.868 144.084 150.638 144.787 150.447C145.164 150.907 145.594 151.392 145.984 151.833C145.684 152.189 145.37 152.533 145.045 152.891C144.628 153.35 144.2 153.83 143.808 154.364L143.681 154.536L143.718 154.747C143.796 155.188 143.827 155.524 143.87 155.849C143.91 156.151 143.965 156.471 144.119 156.752C144.456 157.37 145.146 157.602 146.223 157.802C146.457 157.846 146.759 157.927 147.058 158.008C147.021 158.732 146.96 159.509 146.907 160.249C145.929 160.588 145.126 160.908 144.16 161.427L143.973 161.528C144.042 161.204 144.105 160.862 144.157 160.494L144.158 160.491C144.615 157.19 143.005 154.314 140.586 152.489C138.173 150.667 134.898 149.843 131.918 150.679C130.4 151.105 129.249 151.616 128.269 152.372C127.814 152.723 127.403 153.122 127.012 153.579C127.16 152.839 127.325 152.081 127.492 151.316C127.802 149.896 128.121 148.448 128.366 147.057C128.574 146.996 128.785 146.928 128.983 146.865C129.201 147.087 129.439 147.354 129.687 147.641C130.006 148.011 130.344 148.414 130.648 148.742L130.851 148.96L131.139 148.887C131.786 148.722 132.636 148.565 133.477 148.405C134.3 148.248 135.127 148.086 135.681 147.916L135.864 147.861L135.964 147.695C136.136 147.406 136.312 147.017 136.479 146.647C136.598 146.381 136.716 146.118 136.833 145.88Z" fill="#FBBF2C" stroke="black"/>
<path d="M130.469 133.309C130.711 133.553 132.088 136.662 132.299 137.131C131.498 137.908 130.75 138.714 129.935 139.495C130.3 140.75 131.22 143.257 132.36 143.929C133.344 144.509 136.527 141.81 137.488 142.365C137.845 142.976 137.796 143.951 137.818 144.684C137.456 144.619 137.059 144.584 136.691 144.544C135.681 144.39 135.313 145.963 134.903 146.748C133.683 146.941 132.515 147.129 131.322 147.458C130.772 146.824 130.122 146.053 129.5 145.509C129.096 145.547 128.57 145.65 128.16 145.718C129.019 141.822 129.937 137.225 130.469 133.309Z" fill="#ADE2D7"/>
<path d="M44.418 144.664C45.3793 144.54 46.069 144.754 46.5107 145.097C46.9519 145.44 47.1917 145.946 47.2021 146.507C47.2225 147.609 46.3238 149.059 43.9805 149.605C42.876 149.676 42.145 149.41 41.707 149.034C41.2682 148.657 41.066 148.124 41.1035 147.542C41.1788 146.377 42.2497 144.965 44.417 144.663L44.418 144.664Z" fill="#FBBF2C" stroke="black"/>
<path d="M40.2129 150.224C40.378 150.411 40.5352 150.572 40.7109 150.718C40.8137 150.804 40.9217 150.879 41.0352 150.955C39.4408 152.492 37.8837 154.191 36.4062 155.777H36.4053L30.498 162.124C30.435 162.055 30.3674 161.976 30.2979 161.883C30.1971 161.749 30.1111 161.62 30.0225 161.486C30.992 160.291 32.2619 159.021 33.3125 157.843C35.5412 155.344 38.0008 152.799 40.2129 150.224Z" fill="#A487B0" stroke="black"/>
<path d="M47.582 149.818C47.8976 150.107 48.2629 150.477 48.6426 150.87C49.1481 151.393 49.6786 151.955 50.1045 152.35C51.5371 153.681 52.9668 155.141 54.4141 156.602C55.7379 157.939 57.0759 159.274 58.4277 160.493C58.1862 160.782 57.9556 161.069 57.7227 161.361C57.0138 160.66 56.0314 159.592 55.1914 158.694L54.2793 157.734L54.2773 157.732L46.9785 150.359C47.1879 150.181 47.3846 150.001 47.582 149.818Z" fill="#A487B0" stroke="black"/>
<path d="M75.7477 144.216C75.8695 145.045 74.4063 152.109 74.1537 153.557C73.1296 152.614 72.6325 152.303 71.4147 151.64C70.3829 151.024 69.8559 150.652 69.2417 149.597C70.1561 147.428 73.8037 145.974 75.7477 144.216Z" fill="#ADE2D7"/>
<path d="M122.116 13.3661C123.447 13.0551 124.779 13.8818 125.091 15.2128C125.402 16.5439 124.576 17.8763 123.245 18.1884C121.913 18.5004 120.58 17.6735 120.269 16.3417C119.957 15.0099 120.784 13.6773 122.116 13.3661Z" fill="#FD6B2A" stroke="black"/>
<path d="M121.833 19.9434C122.095 19.9812 122.356 20.0154 122.614 20.0479C122.329 22.1288 121.848 24.4136 121.486 26.5049C121.081 28.8501 120.693 31.2832 120.189 33.5889L119.291 33.4238C119.615 31.9316 119.906 30.2175 120.181 28.7842L120.182 28.7822L121.833 19.9434Z" fill="#FEE367" stroke="black"/>
<path d="M56.4258 133.604C56.5255 133.676 56.6225 133.752 56.7168 133.823C55.7016 134.764 54.7204 135.804 53.7578 136.842C52.6477 138.039 51.5655 139.233 50.4629 140.307C49.4737 141.27 48.4024 142.402 47.4668 143.453C47.3729 143.411 47.2621 143.361 47.1426 143.305C47.0597 143.266 46.9696 143.224 46.8779 143.182C48.338 141.653 49.7184 140.096 51.1426 138.569C52.7716 136.823 54.409 135.114 56.0117 133.315C56.1323 133.395 56.2738 133.493 56.4258 133.604Z" fill="#A487B0" stroke="black"/>
<path d="M140.983 66.0675C141.43 66.4057 141.93 66.7946 142.431 67.1984C143.269 67.8746 144.081 68.5624 144.632 69.0616C144.212 69.2728 143.765 69.4828 143.346 69.6866L143.338 69.6906C142.699 70.0145 142.028 70.3315 141.36 70.6222C141.485 69.929 141.623 69.2975 141.804 68.5372L141.837 68.3947L141.789 68.257C141.501 67.4349 141.255 66.7585 140.983 66.0675Z" fill="#FBBF2C" stroke="black"/>
<path d="M91.2734 56.8615C91.1847 57.4146 91.0741 57.9989 90.957 58.5958C90.842 59.1823 90.7228 59.7821 90.6191 60.3673C90.1646 60.0703 89.7699 59.7861 89.2666 59.4122C88.8394 59.0598 88.4718 58.7439 88.0928 58.4005C89.3876 57.6972 89.8534 57.43 91.2734 56.8615Z" fill="#FBBF2C" stroke="black"/>
<path d="M73.0317 159.36L73.0512 159.381C73.1245 159.715 72.8304 161.023 72.7516 161.449C71.0499 161.452 68.7996 161.659 67.0637 161.769L66.9902 161.632C67.3388 160.512 71.6012 160.028 73.0317 159.36Z" fill="#ADE2D7"/>
<path d="M125.438 158.265C125.472 158.423 125.481 158.406 125.475 158.536C125.41 159.914 125.593 161.532 126.277 162.751C126.479 163.111 126.774 163.449 127.006 163.84L126.939 163.925L126.487 163.884L124.515 163.616C124.629 162.411 125.167 159.39 125.438 158.265Z" fill="#FEE367"/>
</g>
<defs>
<clipPath id="clip0_207_339">
<rect width="180" height="180" fill="white"/>
</clipPath>
</defs>
</svg>
