<svg width="400" height="400" viewBox="0 0 400 400" fill="none" xmlns="http://www.w3.org/2000/svg">
<path d="M29.1311 279.241L8.46824 240.143C6.56619 236.524 1.09875 226.875 0 223.596C0.0323241 223.514 0.0646481 223.432 0.0969722 223.35C6.27333 221.994 19.5039 219.557 25.3239 218.35C72.8446 208.492 120.318 194.429 164.487 174.678C176.845 169.151 189.812 162.495 201.706 156.05C213.909 149.466 225.324 141.721 236.955 134.313C257.216 121.407 276.407 107.217 294.755 91.8404C297.967 89.1476 300.941 86.0984 304.094 83.327C330.114 60.4631 353.723 34.6652 374.193 6.98135C375.338 5.43214 378.258 0.831395 379.495 0L379.877 0.102286L380.136 0.5551C379.857 2.26795 375.203 8.42814 373.908 10.0783C376.315 16.1513 379.868 23.4388 382.676 29.4066L392.992 51.6415C394.07 53.9603 400.486 66.7561 399.971 68.4185C397.843 68.0674 380.633 59.0327 377.546 57.4395L354.891 45.8003C353.11 44.8669 349.583 43.2367 348.047 42.3268C344.19 46.353 340.762 50.1599 337.032 54.2915C344.098 73.0366 352.141 91.5206 359.428 110.19C359.785 111.107 360.308 112.329 359.951 113.251C359.33 113.253 358.719 112.992 358.194 112.677C344.898 104.667 331.984 96.0836 318.599 88.1984C317.059 87.2915 315.036 85.8408 313.313 85.4936C313.178 85.1161 312.96 84.9079 312.619 84.679C311.328 83.8118 310.957 84.484 310.347 85.2352C310.761 84.1461 310.867 84.4073 310.541 83.5763C309.871 82.957 309.212 82.691 308.395 82.279C302.999 87.1627 297.229 91.7319 291.868 96.571C295.783 111.133 302.737 125.515 306.75 140.127C307.549 143.036 311.867 152.774 310.681 154.941C308.713 155.351 264.984 124.521 260.173 121.032C255.593 124.171 250.67 127.354 246.261 130.662C247.017 135.065 248.436 140.251 249.497 144.657L254.872 167.116L258.988 184.445C259.605 187.044 260.397 190.872 261.189 193.369C258.834 191.828 257.102 189.999 254.932 188.344C248.008 183.064 241.859 176.348 234.966 171.117C241.659 185.287 256.32 191.581 259.768 207.229C260.713 211.521 260.511 215.774 258.932 219.922C257.014 224.961 254.169 227.809 250.399 231.444C244.577 237.056 229.147 244.234 233.547 253.936C237.402 262.435 250.521 262.198 252.799 273.003C253.339 275.502 253.126 278.873 252.088 281.249C247.878 290.893 235.971 292.166 236.434 304.542C236.686 311.305 238.506 317.799 244.267 322.176L244.466 322.329C245.205 318.377 245.968 315.02 249.624 312.549C251.713 311.136 254.882 309.758 257.339 310.326C265.476 312.207 265.731 323.651 258.764 327.324C255.015 329.301 252.55 329.534 248.535 329.196C249.328 336.101 253.362 343.176 259.051 346.903C272.93 355.994 287.102 361.513 289.035 380.117C289.632 385.856 288.935 393.744 286.785 399.193C286.468 399.615 285.547 399.981 285.089 399.998C280.857 400.151 284.208 391.41 284.463 388.746C285.889 373.853 279.841 363.936 266.367 356.956C253.18 350.125 245.763 342.539 243.576 327.663C232.821 320.221 227.311 303.114 235.856 291.898C241.433 284.576 256.825 278.726 243.384 267.857C239.131 264.548 232.964 262.955 230.361 257.547C227.102 252.313 227.454 246.661 231.377 241.854C239.868 231.504 257.668 225.863 255.436 209.674C253.652 196.733 240.592 188.386 233.588 177.909C230.592 173.426 228.533 166.951 225.725 163.2C223.14 159.748 216.024 155.705 212.997 152.033C207.689 154.53 203.64 157.107 198.54 159.877C199.605 165.802 200.425 171.872 201.354 177.829L205.049 201.327C205.842 206.664 207.762 217.325 207.912 222.15C198.584 213.698 190.171 204.612 181.257 195.751C175.129 189.659 168.935 183.645 162.901 177.464C158.602 179.313 151.841 182.451 147.563 183.924C147.862 187.235 147.885 192.013 147.922 195.403C147.956 198.446 148.145 203.082 147.983 206.057C148.261 208.759 148.427 214.218 148.4 216.993C148.748 220.142 149.413 245.041 148.9 246.811C148.435 246.68 148.639 246.812 148.337 246.35C146.792 244.648 145.164 242.653 143.795 240.816C135.139 229.207 125.354 218.085 117.017 206.269C115.459 204.579 111.995 199.969 110.431 198C108.424 198.058 95.5055 202.286 92.9268 203.104C92.0958 209.868 91.8895 218.553 91.457 225.504L88.8421 266.552C85.9329 262.664 83.3112 258.366 80.6826 254.276L68.9866 236.105L58.3146 219.644C57.0915 217.76 55.1915 215.206 54.1501 213.377C50.3972 214.569 44.1954 215.989 40.2729 216.79C38.7946 222.586 38.2873 228.443 37.2442 234.288C35.1732 245.895 33.3419 257.53 31.2638 269.134C30.6475 272.576 30.3031 275.913 29.1311 279.241ZM253.409 324.785C255.71 324.051 257.675 323.385 258.866 321.099C260.567 317.832 258.794 314.497 254.819 314.812C251.676 316.254 250.304 318.003 249.094 321.205C248.641 322.404 248.107 323.858 249.346 324.781C250.484 325.041 252.247 324.956 253.409 324.785ZM203.871 216.488L206.321 218.938C206.014 216.845 205.736 214.71 205.29 212.644C205.194 213.799 205.431 214.199 204.802 215.193C204.295 215.465 204.574 215.371 203.857 215.263C203.763 215.872 203.782 215.871 203.871 216.488Z" fill="#050E30"/>
<path d="M290.503 97.998C291.771 99.0994 307.953 147.313 309.354 152.93C303.037 148.959 298.482 146.032 292.287 141.716C282.461 135.294 270.758 127.101 261.18 120.217C265.069 116.747 271.258 112.806 275.429 109.511C280.409 105.577 285.314 101.685 290.503 97.998Z" fill="#2A4375"/>
<path d="M372.853 11.5649C374.45 13.7314 378.912 24.2664 380.329 27.3656C386.189 40.1883 392.898 53.288 398.169 66.2928C394.084 64.6216 386.346 60.6938 382.438 58.5426L363.878 49.0192C358.826 46.3745 354.053 43.6323 348.891 41.1278C354.514 34.8565 360.127 28.0973 365.473 21.5939C367.988 18.535 370.176 14.4887 372.853 11.5649Z" fill="#2A4375"/>
<path d="M36.1021 217.819C36.2576 217.85 36.4131 217.88 36.5686 217.91C36.4601 218.549 36.4124 218.55 36.5822 219.161L36.9676 219.299C37.5994 218.894 37.71 218.809 38.4299 218.513C38.4512 218.738 37.3299 225.379 37.2189 226.013C34.5245 241.385 32.3429 256.974 29.2818 272.272C28.5635 272.282 27.9559 272.512 27.2638 272.714C24.8003 268.62 22.2445 263.446 19.9996 259.158C17.6547 254.778 3.44738 228.685 3.30072 226.289C3.27207 225.82 3.30091 225.552 3.04784 225.134C2.45925 225.101 2.46279 225.149 2.01515 224.795L2.00391 224.447C3.63593 223.913 8.24613 223.369 10.3536 222.95L36.1021 217.819Z" fill="#E9D099"/>
<path d="M91.2754 203.496C91.4799 204.378 90.8352 212.187 90.7482 213.848L88.6496 248.199C88.3499 253.154 87.9306 257.984 87.7832 262.955C85.5636 259.923 83.6722 256.571 81.6195 253.431C79.4542 250.119 77.2809 246.875 75.1592 243.532C69.5453 234.217 63.4472 225.194 57.633 215.999C56.9892 214.981 56.3151 214.056 55.5117 213.153C58.8815 212.182 62.7608 211.503 66.1918 210.576C74.2928 208.388 83.3572 206.228 91.2754 203.496Z" fill="#C04241"/>
<path d="M244.906 131.516C245.281 131.933 257.318 183.992 258.765 189.558C253.501 185.649 247.394 179.734 242.076 175.334C232.632 166.99 223.514 159.276 213.855 151.194C219.519 147.925 225.071 144.384 230.58 140.871C235.366 137.818 240.3 134.806 244.906 131.516Z" fill="#C04241"/>
<path d="M335.999 55.1997C336.449 56.0951 336.819 57.0121 337.168 57.9476C339.057 63.0258 340.981 68.0528 343.017 73.0772L352.767 97.4588C354.538 101.907 356.511 106.432 358.107 110.92C352.659 107.89 347.291 104.447 342.018 101.128C331.45 94.3567 320.087 87.4975 309.219 81.1896C312.176 78.7949 315.467 75.564 318.262 72.8858C324.247 67.1508 330.231 61.1473 335.999 55.1997Z" fill="#C04241"/>
<path d="M167.811 175.663C167.019 176.287 166.508 176.771 165.565 177.154L165.188 177.072L165.229 177.271L164.996 177.314L164.977 177.101C167.268 175.066 173.496 172.705 176.574 171.228C182.352 168.455 188.995 164.569 194.75 162.102C195.367 162.365 195.71 162.713 196.219 163.139C196.981 163.119 196.594 163.206 197.342 162.561L197.523 162.647C198.035 164.177 198.058 165.615 198.349 167.199C199.32 172.396 199.941 177.648 200.789 182.864C202.178 191.398 203.586 199.93 204.767 208.495C204.957 209.876 205.201 211.253 205.291 212.644C205.195 213.799 205.432 214.199 204.803 215.193C204.296 215.465 204.575 215.371 203.858 215.263C203.764 215.872 203.783 215.871 203.872 216.488C202.326 215.043 200.816 213.488 199.319 211.987C188.19 200.832 176.99 189.743 166.086 178.386L167.811 175.663Z" fill="#E9D099"/>
</svg>
